<?xml version="1.0" encoding="utf-8"?>
<!-- Generator: Adobe Illustrator 16.0.4, SVG Export Plug-In . SVG Version: 6.00 Build 0)  -->
<!DOCTYPE svg PUBLIC "-//W3C//DTD SVG 1.1//EN" "http://www.w3.org/Graphics/SVG/1.1/DTD/svg11.dtd">
<svg version="1.1" id="Layer_1" xmlns="http://www.w3.org/2000/svg" xmlns:xlink="http://www.w3.org/1999/xlink" x="0px" y="0px"
	 width="525.6px" height="756px" viewBox="0 0 525.6 756" enable-background="new 0 0 525.6 756" xml:space="preserve">
<g>
	<defs>
		<rect id="SVGID_1_" width="525.6" height="756"/>
	</defs>
	<clipPath id="SVGID_2_">
		<use xlink:href="#SVGID_1_"  overflow="visible"/>
	</clipPath>
</g>
<rect fill="#0067AC" width="525.6" height="756"/>
<g>
	<defs>
		<rect id="SVGID_3_" width="525.6" height="756"/>
	</defs>
	<clipPath id="SVGID_4_">
		<use xlink:href="#SVGID_3_"  overflow="visible"/>
	</clipPath>
	<path clip-path="url(#SVGID_4_)" fill="none" stroke="#00A2DD" stroke-width="2.2" stroke-miterlimit="10" d="M399.396,513.436
		l0.829,0.675c0,0,39.223-63.111,72.093-89.938c69.727-56.903,119.32-84.391,119.32-84.391 M-12.195,748.843
		c0,0-0.813,54.442,62.612,76.47c60.58,21.037,142.919,9.971,142.919,9.971 M64.978,679.077c0,0-19.183-66.675-43.258-104.076
		C-24.858,502.638-96.989,471.984-96.989,471.984 M-95.779,884.529l-1.659-1.348c0,0,71.98-58.97,103.715-94.962
		c31.736-35.993,59.94-106.468,59.94-106.468l1.659,1.347c0,0,46.746,9.455,90.765,32.735
		c33.947,17.954,84.472,65.801,84.472,65.801 M213.006,490.833c0,0-18.722-6.397-65.727,35.134
		C101.317,566.576,66.16,681.581,66.16,681.581l1.87,1.034 M69.205,868.499l-0.397-0.992c0,0-17.527-2.363-55.547,11.818
		c-38.02,14.181-51.197,48.619-51.197,48.619 M69.28,868.202l-0.11-1.063c0,0-34.97-17.439-82.657-10.026
		c-47.688,7.414-83.748,27.053-83.748,27.053l0.108,1.062 M163.909,933.648l0.606-0.88c0,0-22.784-22.539-52.336-43.191
		c-29.551-20.653-43.428-22.734-43.428-22.734l-0.606,0.879 M311.642,834.103c0,0-34.217-14.292-63.644-13.708
		c-31.56,0.625-50.938,14.128-50.938,14.128l0.166,1.055 M197.588,835.232l-1.054-0.176c0,0-29.767,17.228-35.18,40.215
		c-5.413,22.987,2.329,57.816,2.329,57.816l1.054,0.175 M69.003,867.555l-0.766-0.746c0,0-37.576,8.606-58.339,33.109
		c-20.084,23.701-24.199,36.531-24.199,36.531 M246.642,782.485l-0.78,0.731c0,0-45.22-68.954-77.043-87.068
		c-65.416-37.236-99.852-13.607-99.852-13.607 M517,759.456c0,0-164.904-41.653-227.422-12.012
		c-31.873,15.111-43.716,35.042-43.716,35.042l0.78,0.73 M-11.772,748.833l-0.138,1.062c0,0,67.376-23.545,148.947-6.284
		c29.596,6.263,109.147,39.771,109.147,39.771l0.137-1.059 M-11.47,748.886l-0.514,0.938c0,0,69.188,1.09,116.284,19.449
		c74.992,29.233,92.007,62.587,92.007,62.587 M-94.061,884.242c0,0,114.914-67.109,191.654-73.518
		c63.101-5.269,99.234,24.941,99.234,24.941l0.288-1.029 M346.218,644.853c0,0-54.503,26.717-86.562,82.286
		c-16.348,28.335-15.473,54.496-15.473,54.496 M68.179,682.316l-2.137,0.014c0,0,20.999,20.894,30.196,44.885
		c21.803,56.872-28.32,137.31-28.32,137.31 M-107.257,356.456c0,0,123.019,73.8,153.246,190.58
		c8.827,34.102,19.878,135.353,19.878,135.353l2.09-0.443 M348.76,645.115c0,0-27.72-105.722-84.96-143.162
		c-20.388-13.335-45.45-10.944-45.45-10.944s16.98-15.276,56.25-10.655c34.56,4.066,125.279,32.399,125.279,32.399
		s-154.299-14.126-250.099,70.326c-45.383,40.008-83.395,98.287-83.395,98.287l1.567,1.454 M124.43,345.965
		c0,0-43.317,91.87-50.356,158.907c-5.44,51.812-7.982,177.318-7.982,177.318l2.126,0.222 M196.223,835.97l1.7-1.296
		 M427.72,814.536c0,0-76.376-32.525-161.548-17.391c-30.802,5.474-69.28,36.884-69.28,36.884l0.679,2.026 M377.895,294.892
		c0,0,4.652,54.249-57.06,80.698c-58.943,25.262-141.857,20.036-141.857,20.036 M779.723,645.954c0,0-60.913-13.892-128.239-0.534
		c-67.326,13.358-89.769,45.953-89.769,45.953s-13.893-32.593-39.006-57.706c-25.114-25.115-66.259-25.115-66.259-25.115
		 M454.313,608.019c0,0-36.77,2.419-63.298,11.809c-25.647,9.078-44.08,25.106-44.08,25.106 M779.723,640.611
		c0,0-115.404-95.059-219.599-91.853c-85.161,2.62-104.739,57.655-104.739,57.655 M782.09,646.911l1.081-1.843
		c0,0-91.584-53.589-143.703-63.449c-118.341-22.39-183.551,25.329-183.551,25.329 M345.317,644.728
		c0,0-7.299-80.072-163.324-35.188c-84.711,24.369-114.117,73.56-114.117,73.56 M713.836,442.875c0,0-155.115-5.36-235.105,18.167
		c-54.502,16.03-77.517,51.735-77.517,51.735 M401.214,512.777c0,0,27.074,18.432,37.442,33.758
		c12.289,18.167,18.863,60.413,18.863,60.413l-0.919,0.546 M809.645,294.363c0,0-60.914-13.892-128.239-0.534
		s-89.767,45.953-89.767,45.953s-13.894-32.593-39.007-57.707c-25.113-25.114-66.259-25.114-66.259-25.114 M484.236,256.427
		c0,0-36.77,2.419-63.298,11.809c-25.647,9.078-44.08,25.107-44.08,25.107 M558.88,689.736c0,0-175.261-8.549-234.036,13.893
		c-72.662,27.744-79.533,77.787-79.533,77.787 M809.645,289.02c0,0-83.471-93.007-187.713-93.007
		c-99.386,0-136.623,58.81-136.623,58.81 M812.012,295.321l1.082-1.844c0,0-91.585-53.588-143.702-63.45
		c-118.343-22.389-183.552,25.33-183.552,25.33 M295.988,230.748c0,0,14.428-67.864,35.801-106.87
		C394.84,6.593,521.561-27.967,521.561-27.967 M293.73,234.114c0,0,40.186-50.416,85.079-66.955
		c40.608-14.961,49.694-6.412,49.694-6.412 M291.18,233.95c0,0-60.914-13.892-128.238-0.534
		c-67.326,13.358-89.767,45.953-89.767,45.953s-12.825-27.251-37.938-52.365c-25.114-25.114-67.328-30.455-67.328-30.455
		 M73.707,275.094c0,0,3.715-53.528-33.128-110.607C-2.152,98.285-47.835,89.734-47.835,89.734 M-14.457,748.514
		c0,0-36.768,2.42-63.298,11.81c-25.646,9.078-48.377,21.319-48.377,21.319 M-32.624,196.014c0,0-36.769,2.418-63.298,11.809
		c-25.647,9.078-48.377,21.318-48.377,21.318 M291.18,228.607c0,0-115.403-95.058-219.598-91.852
		c-85.16,2.62-104.738,57.655-104.738,57.655 M590.94,34.644c0,0-50.237,7.502-90.836,36.335
		c-36.869,26.183-68.931,89.768-68.931,89.768 M624.606,111.052c0,0-28.686-33.287-108.473-9.082
		c-47.556,14.427-84.997,59.216-84.997,59.216 M470.848,424.339l1.56-1.461c0,0-75.964-53.742-110.161-87.405
		c-34.196-33.662-67.305-101.969-67.305-101.969l-1.561,1.461c0,0-45.962,12.731-88.228,39.06
		c-32.594,20.305-79.615,71.601-79.615,71.601 M429.4,159.233c0,0-103.681-181.44-365.76-164.16c-50.291,3.316-84.96,36-84.96,36
		s143.854-9.052,214.92,54c51.74,45.905,101.385,148.256,101.385,148.256l-1.793,1.163 M305.049,419.705l0.033-1.069
		c0,0,33.652-19.864,81.743-15.836c48.093,4.028,85.449,21.072,85.449,21.072l-0.033,1.068 M431.137,161.186
		c0,0,14.755,2.135,26.221,16.659c16.029,20.305,30.085,77.512,30.085,77.512l-0.919,0.546 M215.275,491.668
		c0,0,0.874-1.167,2.565-3.241c5.622-6.898,8.217-20.872,29.76-38.313c28.02-22.688,57.879-31.802,57.879-31.802l0.666,0.835
		 M-58.436,470.871c0,0,43.584,20.76,122.721,0c79.137-20.761,110.924-75.742,110.924-75.742l-0.092,1.065 M174.733,395.875
		l1.039-0.249c0,0,29.713,11.245,39.27,53.697c7.022,22.548,0.419,41.77,0.419,41.77l-1.039,0.248 M305.279,419.039l0.71-0.798
		c0,0,50.914,26.237,73.355,49.213c21.707,22.223,21.375,43.285,21.375,43.285 M591.639,339.782c0,0-21.004,11.187-91.534,2.638
		c-52.75-6.394-120.246-45.686-120.246-45.686 M122.077,346.723l0.829,0.675c0,0,36.826-63.697,67.291-84.013
		c62.624-41.761,102.057-28.9,102.057-28.9 M-236.451,714.092c0,0,108.914-15.312,173.37,9.842
		c32.86,12.823,47.01,21.348,47.01,21.348l-0.727,0.783 M-97.525,315.48c0,0,108.914-15.313,173.37,9.841
		c32.86,12.824,47.01,21.348,47.01,21.348l-0.726,0.783 M430.342,160.472l0.795,0.714c0,0-29.935,15.002-43.242,29.483
		c-36.334,39.541-10.688,100.991-10.688,100.991 M377.471,294.912l0.212,1.047c0,0-68.868-18.728-149.019,4.249
		c-29.079,8.336-106.067,47.376-106.067,47.376l-0.211-1.048 M377.173,294.987l0.579,0.898c0,0-68.938,5.97-114.622,27.61
		c-72.74,34.456-87.358,68.925-87.358,68.925 M362.812,235.872L362.812,235.872 M377.396,294.926c0,0,70.127-9.255,115.228,0.473
		c54.502,11.755,95.809,44.383,95.809,44.383 M70.501,277.766c0,0-45.496-7.05-71.6-3.741c-56.903,7.213-97.398,41.43-97.398,41.43
		l0.01-1.068 M469.112,424.173c0,0-119.364-58.829-196.364-59.804c-63.315-0.801-97.227,31.884-97.227,31.884l-0.36-1.006
		 M487.504,256.474c0,0-49.847-25.434-103.354-29.956c-56.903-4.809-86.352,7.018-86.352,7.018 M75.162,280.08l0.633-0.86
		l49.743,66.406 M293.959,234.397l0.634-0.861l83.302,61.356l-0.635,0.86 M293.022,234.205l2.133-0.138
		c0,0-19.47,22.325-26.951,46.905c-17.734,58.27,37.941,134.968,37.941,134.968 M357.438-64.742c0,0-29.922,43.816-51.829,162.437
		c-6.398,34.64-10.273,136.419-10.273,136.419l-2.117-0.295 M293.548,234.907l1.082-1.843c0,0-91.584-53.589-143.703-63.449
		c-118.342-22.39-183.551,25.329-183.551,25.329 M-47.033,88.667c0,0,150.129-25.169,251.651,52.31
		c48.095,36.703,90.126,92.153,90.126,92.153l-1.46,1.561 M213.168-97.336c0,0,49.695,88.583,61.448,154.957
		c9.084,51.296,20.479,176.311,20.479,176.311l-2.104,0.371 M176.146,396.514l-1.787-1.172 M293.15,233.531l1.788,1.172
		 M-97.525,315.48c0,0,67.503,23.353,151.997,41.901c43.815,9.618,120.87,37.245,120.87,37.245l-0.535,2.07"/>
	<path clip-path="url(#SVGID_4_)" fill="#00A2DD" d="M297.797,233.535c0,1.768-1.432,3.2-3.2,3.2c-1.768,0-3.2-1.432-3.2-3.2
		c0-1.768,1.433-3.2,3.2-3.2C296.365,230.335,297.797,231.767,297.797,233.535"/>
	<circle clip-path="url(#SVGID_4_)" fill="none" stroke="#00A2DD" stroke-width="2.2" cx="294.597" cy="233.535" r="3.2"/>
	<path clip-path="url(#SVGID_4_)" fill="#00A2DD" d="M178.975,395.626c0,1.768-1.433,3.199-3.201,3.199
		c-1.767,0-3.2-1.432-3.2-3.199s1.433-3.2,3.2-3.2C177.542,392.426,178.975,393.858,178.975,395.626"/>
	<path clip-path="url(#SVGID_4_)" fill="none" stroke="#00A2DD" stroke-width="2.2" d="M178.975,395.626
		c0,1.768-1.433,3.199-3.201,3.199c-1.767,0-3.2-1.432-3.2-3.199s1.433-3.2,3.2-3.2
		C177.542,392.426,178.975,393.858,178.975,395.626"/>
	<path clip-path="url(#SVGID_4_)" fill="#00A2DD" d="M434.342,161.185c0,1.768-1.433,3.2-3.199,3.2c-1.769,0-3.201-1.432-3.201-3.2
		c0-1.768,1.433-3.2,3.201-3.2C432.909,157.984,434.342,159.417,434.342,161.185"/>
	<circle clip-path="url(#SVGID_4_)" fill="none" stroke="#00A2DD" stroke-width="2.2" cx="431.142" cy="161.185" r="3.2"/>
	<path clip-path="url(#SVGID_4_)" fill="#00A2DD" d="M76.91,277.765c0,1.767-1.432,3.2-3.2,3.2s-3.201-1.433-3.201-3.2
		c0-1.768,1.433-3.2,3.201-3.2S76.91,275.997,76.91,277.765"/>
	<circle clip-path="url(#SVGID_4_)" fill="none" stroke="#00A2DD" stroke-width="2.2" cx="73.709" cy="277.765" r="3.2"/>
	<path clip-path="url(#SVGID_4_)" fill="#00A2DD" d="M219.3,490.682c0,1.768-1.433,3.199-3.2,3.199
		c-1.768,0-3.201-1.432-3.201-3.199c0-1.769,1.433-3.2,3.201-3.2C217.867,487.481,219.3,488.913,219.3,490.682"/>
	<circle clip-path="url(#SVGID_4_)" fill="none" stroke="#00A2DD" stroke-width="2.2" cx="216.1" cy="490.682" r="3.2"/>
	<path clip-path="url(#SVGID_4_)" fill="#00A2DD" d="M459.806,607.494c0,1.768-1.432,3.2-3.2,3.2c-1.768,0-3.201-1.433-3.201-3.2
		s1.434-3.199,3.201-3.199C458.374,604.295,459.806,605.727,459.806,607.494"/>
	<circle clip-path="url(#SVGID_4_)" fill="none" stroke="#00A2DD" stroke-width="2.2" cx="456.605" cy="607.494" r="3.201"/>
	<path clip-path="url(#SVGID_4_)" fill="#66A4CD" d="M69.245,682.33c0,1.768-1.433,3.2-3.2,3.2c-1.767,0-3.201-1.433-3.201-3.2
		c0-1.767,1.434-3.199,3.201-3.199C67.812,679.131,69.245,680.563,69.245,682.33"/>
	<circle clip-path="url(#SVGID_4_)" fill="none" stroke="#66A4CD" stroke-width="2.2" cx="66.044" cy="682.33" r="3.2"/>
	<path clip-path="url(#SVGID_4_)" fill="#00A2DD" d="M404.419,512.777c0,1.767-1.433,3.199-3.199,3.199
		c-1.768,0-3.201-1.433-3.201-3.199c0-1.769,1.434-3.2,3.201-3.2C402.986,509.577,404.419,511.009,404.419,512.777"/>
	<circle clip-path="url(#SVGID_4_)" fill="none" stroke="#00A2DD" stroke-width="2.2" cx="401.219" cy="512.777" r="3.2"/>
	<path clip-path="url(#SVGID_4_)" fill="#00A2DD" d="M488.511,255.356c0,1.767-1.433,3.2-3.201,3.2c-1.767,0-3.199-1.433-3.199-3.2
		c0-1.768,1.433-3.2,3.199-3.2C487.078,252.156,488.511,253.588,488.511,255.356"/>
	<circle clip-path="url(#SVGID_4_)" fill="none" stroke="#00A2DD" stroke-width="2.2" cx="485.311" cy="255.356" r="3.2"/>
	<path clip-path="url(#SVGID_4_)" fill="#00A2DD" d="M475.524,424.173c0,1.768-1.434,3.199-3.201,3.199s-3.2-1.432-3.2-3.199
		c0-1.769,1.433-3.2,3.2-3.2S475.524,422.404,475.524,424.173"/>
	<circle clip-path="url(#SVGID_4_)" fill="none" stroke="#00A2DD" stroke-width="2.2" cx="472.324" cy="424.173" r="3.201"/>
	<path clip-path="url(#SVGID_4_)" fill="#00A2DD" d="M348.353,644.853c0,1.769-1.433,3.2-3.201,3.2c-1.767,0-3.199-1.432-3.199-3.2
		c0-1.767,1.433-3.2,3.199-3.2C346.92,641.652,348.353,643.086,348.353,644.853"/>
	<circle clip-path="url(#SVGID_4_)" fill="none" stroke="#00A2DD" stroke-width="2.2" cx="345.152" cy="644.853" r="3.2"/>
	<path clip-path="url(#SVGID_4_)" fill="#00A2DD" d="M127.137,345.625c0,1.768-1.432,3.2-3.2,3.2s-3.201-1.432-3.201-3.2
		c0-1.767,1.433-3.2,3.201-3.2S127.137,343.858,127.137,345.625"/>
	<circle clip-path="url(#SVGID_4_)" fill="none" stroke="#00A2DD" stroke-width="2.2" cx="123.937" cy="345.625" r="3.2"/>
	<path clip-path="url(#SVGID_4_)" fill="#00A2DD" d="M381.099,294.891c0,1.768-1.434,3.2-3.2,3.2c-1.768,0-3.201-1.432-3.201-3.2
		s1.434-3.2,3.201-3.2C379.665,291.691,381.099,293.123,381.099,294.891"/>
	<circle clip-path="url(#SVGID_4_)" fill="none" stroke="#00A2DD" stroke-width="2.2" cx="377.898" cy="294.891" r="3.201"/>
	<path clip-path="url(#SVGID_4_)" fill="#00A2DD" d="M309.35,419.146c0,1.767-1.433,3.199-3.201,3.199
		c-1.767,0-3.199-1.433-3.199-3.199c0-1.769,1.433-3.2,3.199-3.2C307.917,415.946,309.35,417.378,309.35,419.146"/>
	<path clip-path="url(#SVGID_4_)" fill="none" stroke="#00A2DD" stroke-width="2.2" d="M309.35,419.146
		c0,1.767-1.433,3.199-3.201,3.199c-1.767,0-3.199-1.433-3.199-3.199c0-1.769,1.433-3.2,3.199-3.2
		C307.917,415.946,309.35,417.378,309.35,419.146"/>
	<path clip-path="url(#SVGID_4_)" fill="none" stroke="#00A2DD" stroke-width="2.2" stroke-miterlimit="10" d="M69.968,680.367
		l0.259,1.282c0,0-84.268-22.916-182.339,5.198c-35.581,10.2-129.783,57.97-129.783,57.97l-0.259-1.283"/>
	<path clip-path="url(#SVGID_4_)" fill="none" stroke="#00A2DD" stroke-width="2.2" stroke-miterlimit="10" d="M344.969,642.756
		l0.259,1.282c0,0-65.163-25.114-163.234,3c-35.581,10.2-110.065,33.166-110.065,33.166l-6.935,5.834"/>
</g>
<line fill="none" stroke="#00A2DD" stroke-width="2.2" stroke-miterlimit="10" x1="403.136" y1="513.11" x2="247.72" y2="595.505"/>
<path fill="none" stroke="#00A2DD" stroke-width="2.2" stroke-miterlimit="10" d="M216.2,491.666"/>
</svg>
