<?xml version="1.0" encoding="utf-8"?>
<!-- Generator: Adobe Illustrator 16.0.4, SVG Export Plug-In . SVG Version: 6.00 Build 0)  -->
<!DOCTYPE svg PUBLIC "-//W3C//DTD SVG 1.1//EN" "http://www.w3.org/Graphics/SVG/1.1/DTD/svg11.dtd">
<svg version="1.1" id="Layer_1" xmlns="http://www.w3.org/2000/svg" xmlns:xlink="http://www.w3.org/1999/xlink" x="0px" y="0px"
	 width="260px" height="40px" viewBox="0 0 260 40" enable-background="new 0 0 260 40" xml:space="preserve">
<g>
	<path fill="#FFFFFF" d="M224.91,31.367h6.896c4.086,0,6.713-2.32,6.713-5.951c0-3.691-1.525-5.127-3.905-5.555v-0.061
		c2.165-0.67,3.202-2.287,3.202-4.945c0-3.845-2.624-5.277-5.859-5.277h-7.047V31.367z M228.389,28.742v-7.538h3.235
		c2.013,0,3.417,1.345,3.417,3.692c0,2.502-1.129,3.846-3.205,3.846H228.389z M228.389,18.764v-6.562h2.44
		c1.952,0,3.51,0.521,3.51,3.115c0,2.043-1.097,3.447-3.203,3.447H228.389z M206.609,31.367h3.633l1.404-5.341h6.377l1.342,5.341
		h3.633L217.26,9.578h-4.457L206.609,31.367z M212.287,23.25l2.594-10.743h0.06l2.503,10.743H212.287z M193.543,31.367h11.9v-2.929
		h-8.425V9.578h-3.476V31.367z"/>
	<path fill="#FFFFFF" d="M173.375,24.621v0.521c0,3.051,1.221,6.652,6.623,6.652c4.395,0,7.203-1.923,7.203-6.562
		c0-2.988-1.344-4.668-4.426-5.766l-2.35-0.857c-2.322-0.883-3.267-1.832-3.267-3.692c0-2.317,1.433-3.142,2.93-3.142
		c2.169,0,3.054,1.16,3.054,3.142v0.458h3.476v-0.488c0-2.258-0.578-5.737-6.163-5.737c-4.09,0-6.773,2.195-6.773,6.164
		c0,3.114,1.372,4.763,4.547,5.983l2.379,0.822c1.953,0.579,3.113,1.588,3.113,3.877c0,1.619-1.1,3.174-3.295,3.174
		c-2.412,0-3.57-1.343-3.57-3.998v-0.551H173.375z M156.76,31.365h3.295v-16.66h0.06l6.317,16.66h4.242V9.578h-3.295v16.236h-0.061
		l-6.319-16.236h-4.239V31.365z M146.588,29.17c-2.074,0-3.723-1.28-3.723-8.787c0-7.328,1.648-8.607,3.723-8.607
		c2.076,0,3.723,1.279,3.723,8.607C150.311,27.89,148.664,29.17,146.588,29.17 M146.588,31.795c5.006,0,7.203-3.541,7.203-11.322
		c0-7.783-2.197-11.323-7.203-11.323c-5.004,0-7.203,3.54-7.203,11.323C139.385,28.254,141.584,31.795,146.588,31.795
		 M117.971,31.365h3.296V13.24h0.06l4.396,18.125h2.929l4.396-18.125h0.062v18.125h3.296V9.578h-5.31l-3.785,16.143h-0.062
		l-3.844-16.143h-5.433V31.365z M96.037,31.365h3.295V13.24h0.062l4.396,18.125h2.927l4.397-18.125h0.059v18.125h3.297V9.578h-5.309
		l-3.785,16.143h-0.062L101.47,9.578h-5.433V31.365z M85.869,29.17c-2.078,0-3.724-1.28-3.724-8.787
		c0-7.328,1.646-8.607,3.724-8.607c2.074,0,3.723,1.279,3.723,8.607C89.592,27.89,87.943,29.17,85.869,29.17 M85.869,31.795
		c5.004,0,7.201-3.541,7.201-11.322c0-7.783-2.197-11.323-7.201-11.323c-5.008,0-7.204,3.54-7.204,11.323
		C78.665,28.254,80.861,31.795,85.869,31.795 M73.129,23.555v0.367c0,2.012-0.336,5.248-3.235,5.248
		c-2.562,0-3.724-1.768-3.724-8.787c0-7.021,1.162-8.607,3.724-8.607c2.503-0.094,3.112,2.227,3.112,4.241v0.367h3.48v-0.397
		c0-2.258-0.367-6.837-6.562-6.837c-5.523,0-7.231,3.54-7.231,11.323c0,7.781,1.708,11.322,7.2,11.322
		c5.128,0,6.714-3.847,6.714-7.783v-0.457H73.129z"/>
	<path fill="#FFFFFF" d="M46.558,7.57l-0.347,1.277c0,0,1.891,1.169,2.863,2.898c0.972,1.729,1.133,2.992,1.344,3.797l1.098,0.289
		c0,0-0.168-3.008-1.98-5.471C48.203,8.547,46.558,7.57,46.558,7.57"/>
	<path fill="#FFFFFF" d="M33.66,6.684l1.157,2.094c1.245-0.573,2.565-0.939,3.913-1.092c1.242-0.137,2.42-0.084,3.505,0.115v-1.68
		c-1.106-0.209-2.419-0.397-3.692-0.341C37.16,5.842,35.018,6.276,33.66,6.684"/>
	<path fill="#FFFFFF" d="M35.958,30.406c-3.058-0.443-5.794-2.402-7.683-5.812c-0.029-0.053,0.191,0.338-0.695-1.271
		c-0.315-0.572-0.359-1.221-0.359-1.221l-6.414,1.062c0,0,0.521,2.782,1.481,4.478c0.034,0.066,0.065,0.134,0.101,0.199
		c2.87,5.173,7.219,7.406,11.828,7.334L35.958,30.406z"/>
	<path fill="#FFFFFF" d="M20.768,19.537l6.09-0.496c0.078-2.155,1.642-5.251,2.856-6.764c0.95-1.18,1.25-1.27,2.685-2.355
		l-2.128-2.178c-1.634,0.827-3.367,1.678-4.78,3.105C23.067,12.891,21.297,16.412,20.768,19.537"/>
	<path fill="#FFFFFF" d="M50.812,18.884c-0.272,5.027-4.502,10.755-11.401,11.534c-0.058,0.006-0.113,0.008-0.169,0.014
		l-1.202,4.148c0.064-0.018,0.127-0.028,0.191-0.041c8.768-1.916,13.52-9.416,13.656-15.342c0.004-0.135,0.004-0.27,0.004-0.403
		l-1.065-0.325C50.823,18.604,50.819,18.743,50.812,18.884"/>
	<path fill="#FFFFFF" d="M45.678,25.159l-0.751-1.356c0.731-0.48,1.376-1.072,1.911-1.757c0.492-0.63,0.859-1.29,1.117-1.952
		l0.754,0.645c-0.258,0.678-0.802,1.736-1.26,2.412C46.952,23.883,46.359,24.559,45.678,25.159"/>
	<path fill="#FFFFFF" d="M36.281,28.341l1.164-3.257c1.107,0.383,2.304,0.486,3.521,0.297c1.117-0.172,1.404-0.131,2.286-0.676
		l0.39,1.885c-0.979,0.646-2.093,1.173-3.325,1.498C38.963,28.447,37.597,28.535,36.281,28.341"/>
	<path fill="#FFFFFF" d="M39.823,9.556c-6.423,0.245-13.487,6.497-9.859,13.837c0,0,0.683,1.174,1.37,2.068
		c0.684,0.893,1.49,1.566,1.49,1.566l2.535-3.304c0,0-0.244-0.386-0.912-1.262c-0.67-0.88-0.725-1.151-0.725-1.151
		c-2.51-5.258,1.876-10.126,6.719-10.641c0.121-0.014,0.242-0.025,0.361-0.032l-0.604-1.09C40.074,9.55,39.949,9.551,39.823,9.556"
		/>
	<path fill="#FFFFFF" d="M44.041,11.163v-0.802c0,0,1.986,0,3.791,2.747c0.907,1.384,1.242,3.493,1.242,3.493h-0.902
		c0,0-0.152-1.838-1.614-3.664C45.604,11.746,44.041,11.163,44.041,11.163"/>
</g>
</svg>
