<?xml version="1.0" encoding="utf-8"?>
<!-- Generator: Adobe Illustrator 16.0.4, SVG Export Plug-In . SVG Version: 6.00 Build 0)  -->
<!DOCTYPE svg PUBLIC "-//W3C//DTD SVG 1.1//EN" "http://www.w3.org/Graphics/SVG/1.1/DTD/svg11.dtd">
<svg version="1.1" id="Layer_1" xmlns="http://www.w3.org/2000/svg" xmlns:xlink="http://www.w3.org/1999/xlink" x="0px" y="0px"
	 width="1800px" height="251px" viewBox="0 0 1800 251" enable-background="new 0 0 1800 251" xml:space="preserve">
<g>
	<defs>
		<rect id="SVGID_1_" width="1800" height="251"/>
	</defs>
	<clipPath id="SVGID_2_">
		<use xlink:href="#SVGID_1_"  overflow="visible"/>
	</clipPath>
	<g clip-path="url(#SVGID_2_)">
		<defs>
			<rect id="SVGID_3_" x="1" y="-1035.541" width="1800" height="2589.043"/>
		</defs>
		<clipPath id="SVGID_4_">
			<use xlink:href="#SVGID_3_"  overflow="visible"/>
		</clipPath>
	</g>
	<rect x="1" y="-1035.541" clip-path="url(#SVGID_2_)" fill="#636466" width="1800" height="2589.043"/>
	<g clip-path="url(#SVGID_2_)">
		<defs>
			<rect id="SVGID_5_" x="1" y="-1035.541" width="1800" height="2589.043"/>
		</defs>
		<clipPath id="SVGID_6_">
			<use xlink:href="#SVGID_5_"  overflow="visible"/>
		</clipPath>
		<path clip-path="url(#SVGID_6_)" fill="#707070" d="M-46.93,2171.815l-2.094-0.673c0.142-0.441,14.947-45.075,83.083-125.482
			c20.349-24.015,58.894-58.856,126.959-88.459c23.629-10.277,44.468-17.122,57.852-21.069c-26.43,0.902-82.95,7.504-172.072,40.746
			c-36.991,13.797-90.614,42.538-136.008,101.108c-27.144,35.021-38.569,64.467-38.682,64.76l-2.055-0.785
			c0.114-0.297,11.656-30.046,38.997-65.322c25.231-32.554,69.476-76.645,136.979-101.822
			c99.807-37.227,159.032-41.115,180.98-40.995c1.987-0.54,3.61-0.962,4.826-1.271c-10.873-4.77-37.197-15.351-74.57-24.071
			c-45.833-10.694-118.132-20.697-202.286-7.614c-90.55,14.078-169.352,41.313-221.258,62.607
			c-33.741,18.198-53.855,29.907-54.296,30.165l-1.109-1.9c0.347-0.202,12.891-7.504,34.675-19.482
			c-20.529,8.983-34.683,16.062-40.903,19.269l1.594,1.296l-1.387,1.707l-2.334-1.896c-0.315,0.165-0.578,0.305-0.79,0.417
			l0.295,2.903l-2.188,0.223l-0.444-4.364l0.643-0.35c0.045-0.025,0.256-0.139,0.629-0.337l-2.538-2.062l1.043-0.854
			c2.379-1.947,230.854-189.491,343.326-312.052c-9.96-13.847-18.625-28.555-25.936-44.041
			c-21.591-45.737-25.167-85.671-25.752-98.686l-0.131-0.002l0.121-0.221c-0.116-2.674-0.104-4.149-0.103-4.23l1.433,0.021
			l0.023-0.18l0.979,0.127l0.183-0.333l0.855,0.468l0.165,0.021l-0.008,0.064l0.918,0.503l-0.63,1.151
			c11.443-3.756,66.613-20.978,148.297-32.241c7.565-1.043,15.148-2.008,22.742-2.893c49.481-90.716,85.425-176.77,92.421-193.831
			l-0.036-0.326c-0.006-0.062-0.025-0.23-0.055-0.505l-0.901-0.896l0.802-0.005c-0.2-1.809-0.586-5.294-1.143-10.24l-1.712,0.492
			c-0.656-2.281-66.594-229.649-148.011-356.135C38.125,877.791-5.826,824.143-56.174,774.783
			c-40.286-39.494-84.733-76.348-132.109-109.534c-80.676-56.516-142.686-83.129-143.302-83.391l0.86-2.025
			c0.619,0.264,62.798,26.944,143.652,83.577c47.482,33.258,92.031,70.191,132.41,109.773
			C-4.186,822.665,39.88,876.451,76.309,933.047c77.17,119.888,140.415,330.048,147.6,354.41
			c-7.466-66.192-40.075-347.309-66.477-449.311c-20.118-77.723-53.806-155.337-100.346-231.289
			c-61.491,5.111-111.28,2.489-147.839-2.073c-70.553-8.808-108.47-26.581-108.845-26.76l0.946-1.986
			c0.373,0.178,38.057,17.825,108.301,26.579c36.196,4.509,85.413,7.106,146.147,2.14c-7.623-12.372-15.583-24.694-23.885-36.972
			c-47.78-70.656-106.794-139.773-175.402-205.431c-116.824-111.798-222.342-175.582-223.395-176.213l1.132-1.887
			c1.054,0.633,106.784,64.544,223.784,176.51C-73.249,426.53-14.133,495.768,33.734,566.554
			c8.529,12.613,16.705,25.284,24.52,37.999c47.487-4.021,101.928-12.664,162.622-28.585c19.534-5.125,38.727-10.999,57.533-17.605
			c14.677-59.618,36.925-133.568,70.505-223.467c12.463-33.366,24.681-64.057,35.59-90.489
			c-68.603-21.54-141.103-42.652-197.191-54.965C-98.805,126.633-331.038,46.712-333.351,45.913l0.36-1.04l-0.153-1.089
			c0.933-0.132,94.697-13.147,214.221-15.466c70.208-1.36,135.442,1.181,193.89,7.553c73.098,7.971,135.736,21.993,186.177,41.678
			c111.333,43.448,160.674,72.898,161.159,73.19l0.258,0.155c0.944-1.603,2.293-3.88,4.016-6.755L260.58-77.461l-1.29,1.752
			l-1.771-1.305l3.046-4.137l167.234,223.253c11.646-19.358,37.208-60.775,69.313-106.324
			C537.833-21.99,597.715-98.418,651.75-134.453c48.99-32.669,97.88-58.21,145.315-75.914
			c37.968-14.172,75.096-23.384,110.352-27.38c23.585-2.674,43.21-2.619,58.363-1.562c-23.31-3.868-58.166-8.755-100.844-12.008
			c-73.8-5.627-186.743-7.377-305.705,16.226c-118.839,23.578-195.911,64.991-239.64,95.581
			c-47.371,33.138-66.898,61.06-67.09,61.338l-1.086,1.575l-0.815-1.73c-0.438-0.932-44.837-94.149-129.707-179.024
			c-24.438-24.437-69.797-58.87-147.105-84.133c-46.258-15.115-82.471-19.804-82.831-19.85l0.276-2.183
			c0.362,0.046,36.784,4.762,83.238,19.941c42.899,14.018,103.395,40.086,147.978,84.669
			c78.927,78.932,122.97,165.071,129.339,177.99c4.733-6.257,25.022-31.331,66.424-60.313
			c43.913-30.74,121.298-72.352,240.591-96.02c65.807-13.057,172.372-26.479,306.346-16.258
			c80.128,6.111,132.765,17.975,133.286,18.094l-0.18,0.791c2.554,0.623,3.891,1.048,3.956,1.069l-0.682,2.092
			c-0.337-0.109-34.346-10.874-94.032-4.08c-35.065,3.99-72.001,13.168-109.782,27.279c-47.238,17.644-95.938,43.093-144.745,75.64
			c-29.669,19.786-80.481,65.283-154.06,169.669c-32.506,46.116-58.289,87.979-69.688,106.958l1.789,2.389
			c13.141-14.218,165.807-178.279,271.985-244.424c140.471-87.505,294.806-131.742,302.175-133.822l0.084-0.079l-0.212-0.199
			l-0.459,0.081l-0.382-2.166l0.247-0.044l-0.02-0.306l0.315-0.021l-0.41-0.269l1.205-1.84l1.523,0.997
			c0.317-0.389,0.709-0.868,1.173-1.433c-10.32-5.989-85.062-49.084-177.869-95.249c-91.832-45.679-220.627-103.787-312.701-121.206
			c-92.325-17.468-182.776-23.787-268.844-18.782c-34.232,1.99-67.811,5.764-100.514,11.282
			c59.958,96.915,85.722,189.644,96.782,251.361c12.471,69.592,9.457,115.901,9.425,116.361l-2.194-0.152
			c0.031-0.457,3.025-46.556-9.411-115.901c-11.059-61.668-36.851-154.406-96.943-251.271c-32.252,5.531-63.64,12.763-93.953,21.659
			c-105.126,30.853-161.538,71.584-162.096,71.992l-1.299-1.775c0.56-0.41,57.205-41.327,162.66-72.293
			c30.154-8.855,61.365-16.066,93.432-21.6c-1.856-2.971-3.748-5.949-5.67-8.927c-15.573-24.127-31.869-46.932-48.779-68.28
			c-7.755,2.6-15.358,5.39-22.795,8.367c-41.725,16.7-78.499,39.325-109.3,67.246c-52.406,47.506-69.515,94.445-69.682,94.914
			l-2.073-0.738c0.168-0.474,17.466-47.933,70.277-95.806c30.996-28.098,67.991-50.861,109.959-67.659
			c7.235-2.896,14.625-5.615,22.158-8.156c-18.818-23.613-38.395-45.432-58.584-65.274c-31.11-30.574-63.741-56.555-96.986-77.222
			c-56.601-35.185-95.871-42.838-96.261-42.911l0.405-2.162c0.393,0.073,39.973,7.768,96.894,43.129
			c33.398,20.748,66.173,46.83,97.414,77.523c20.46,20.101,40.288,42.219,59.339,66.175c46.494-15.405,98.529-24.076,155.079-25.816
			c81.526-2.507,171.833,12.489,268.426,44.575c77.241,25.657,158.655,62.238,241.979,108.728
			c119.62,66.741,209.145,135.189,234.864,155.495c-43.803-54.44-161.263-193.893-290.299-292.364
			c-79.191-60.437-173.718-107.453-280.955-139.743c-85.814-25.84-179.915-42.361-279.686-49.104
			c-169.908-11.484-299.044,9.697-300.329,9.913l-0.363-2.17c1.286-0.216,130.63-21.437,300.785-9.942
			c99.944,6.752,194.215,23.301,280.196,49.188c107.504,32.367,202.277,79.507,281.687,140.11
			c145.21,110.815,275.754,273.416,303.468,308.84c-12.428-24.847-50.557-99.416-102.77-186.051
			c-58.947-97.811-148.405-231.431-239.83-312.543c-55.404-49.157-128.515-89.454-217.304-119.774
			c-71.071-24.27-152.284-42.235-241.382-53.397C52.87-935.551-70.714-928.104-71.944-928.028l-3.04,0.191l2.216-2.089
			c0.298-0.281,30.363-28.409,81.1-57.539c46.825-26.885,121.362-60.167,210.541-66.046
			c204.857-13.506,398.239,7.663,574.768,62.924c40.903,12.805,80.931,27.437,119.999,43.853
			c-18.81-62.185-48.06-142.056-93.486-241.596c-47.016-103.022-89.66-179.257-90.085-180.016l1.919-1.077
			c0.425,0.759,43.114,77.075,90.167,180.179c30.687,67.243,67.719,155.924,94.152,243.634
			c56.896,24.052,111.749,51.897,164.275,83.39c29.625-123.129,59.936-211.743,82.883-269.637
			c34.641-87.396,60.472-125.646,60.729-126.022l1.816,1.24c-0.256,0.375-25.989,38.498-60.548,125.715
			c-22.948,57.913-53.273,146.604-82.903,269.892c34.326,20.664,67.656,42.888,99.916,66.637
			c17.223,12.68,33.599,25.408,49.143,38.068c29.619-37.291,62.186-72.855,97.53-106.474
			c62.921-59.847,134.747-113.706,213.483-160.079c134.061-78.958,243.161-109.203,244.248-109.499l0.578,2.122
			c-1.084,0.296-109.952,30.483-243.771,109.309c-78.58,46.288-150.263,100.043-213.054,159.771
			c-35.268,33.547-67.757,69.029-97.31,106.241c77.355,63.224,133.788,124.491,169.571,167.85
			c46.83,56.745,69.388,95.93,69.61,96.319l-1.91,1.092c-0.222-0.389-22.719-39.46-69.459-96.085
			c-35.707-43.261-92.005-104.375-169.179-167.452c-35.645,45.083-66.979,92.681-93.724,142.431
			c-69.453,126.757-118.079,345.42-122.216,364.397c13.947-16.306,41.742-47.458,78.187-81.607
			c49-45.912,124.116-106.796,203.71-136.118c72.007-26.528,114.604-31.093,137.665-30.26c25.284,0.919,33.324,8.222,33.654,8.532
			l-1.508,1.602c-0.073-0.067-8.031-7.147-32.73-7.953c-22.832-0.743-65.031,3.879-136.321,30.144
			c-43.735,16.111-114.445,52.723-202.939,135.636c-40.2,37.665-69.848,71.67-81.949,86.057c-0.095,2.333-0.164,4.08-0.208,5.196
			l0.795-0.051l-0.737,0.847l281.704,207.49c11.166-1.397,67.023-8.096,137.447-11.432c72.46-3.434,175.61-3.909,255.513,13.324
			c53.293,11.495,137.211,36.65,234.357,91.213c58.101,32.633,93.853,60.719,94.206,60.998l-1.363,1.727
			c-0.354-0.279-35.999-28.279-93.962-60.83c-53.479-30.033-137.437-70.193-233.701-90.957
			c-143.684-30.99-364.467-5.285-391.516-1.946c0.041,0.713,0.094,1.813,0.134,3.273l0.13,0.202l-0.125,0.011
			c0.336,13.014-0.409,53.106-18.724,100.264c-6.198,15.961-13.806,31.245-22.762,45.758
			c120.844,114.321,361.987,285.264,364.496,287.039l1.102,0.779l-2.383,2.232c0.383,0.17,0.6,0.269,0.646,0.289l0.288,0.132
			c199.826-162.943,352.761-256.121,395.508-281.164c-10.39,3.247-27.55,7.456-53.492,10.643
			c-44.019,5.406-122.7,8.676-247.584-6.461c-51.584-6.252-140.986-26.34-273.965-86.53c-79.5-35.984-137.677-69.733-138.256-70.069
			l1.107-1.901c0.577,0.336,58.675,34.037,138.078,69.977c73.252,33.155,180.127,75.048,273.299,86.341
			c124.474,15.085,202.9,11.859,246.774,6.495c41.676-5.096,60.906-13.026,65.138-14.97
			c-4.91-11.132-52.282-115.665-132.933-196.316c-24.413-24.414-69.407-57.235-145.125-74.951
			c-45.339-10.607-80.658-10.735-81.01-10.735v-2.2c0.055,0,0.969,0.004,2.647,0.049c-5.905-2.954-47.26-23.323-107.442-45.08
			c-59.767-21.606-150.853-49.04-245.378-57.027c-16.102-1.361-31.553-2.325-46.324-2.955c-6.431,31.619-7.991,66.094-4.632,102.635
			c6.306,68.588,28.067,121.364,28.287,121.889l-2.03,0.848c-0.221-0.528-22.097-53.564-28.441-122.473
			c-3.375-36.646-1.829-71.237,4.591-102.99c-76.331-3.096-134.463,2.754-172.018,8.859c-48.919,7.953-74.401,18.044-74.652,18.145
			l-0.82-2.041c0.254-0.102,25.895-10.265,75.019-18.259c37.732-6.14,96.187-12.019,172.922-8.889
			c0.545-2.593,1.123-5.17,1.733-7.725c10.289-43.063,29.963-80.63,58.474-111.657c42.258-45.981,134.358-94.018,146.972-100.478
			l-1.528-1.372l1.471-1.637l1.217,1.094c1.745-3.434,29.08-56.889,70.66-120.027c39.497-59.976,100.299-141.212,165.661-187.631
			c39.708-28.2,108.026-68.336,207.993-99.399c59.78-18.576,103.137-25.161,103.567-25.226l0.325,2.176
			c-0.431,0.064-43.652,6.632-103.282,25.164c-55.013,17.097-135.638,48.165-207.33,99.079
			c-35.923,25.512-93.727,78.671-165.098,187.047c-35.396,53.748-60.442,100.448-68.135,115.168
			c10.547-11.921,39.314-43.192,80.163-77.892c47.901-40.689,122.699-94.562,207.01-120.138
			c62.423-18.937,120.835-29.083,173.615-30.159c42.276-0.862,81.033,4.06,115.235,14.626
			c58.342,18.022,83.535,46.682,83.782,46.969l-1.666,1.436c-0.244-0.283-25.136-28.545-82.951-46.361
			c-33.973-10.469-72.505-15.338-114.507-14.468c-52.538,1.087-110.7,11.201-172.87,30.062
			c-46.336,14.056-119.728,46.234-206.224,119.709c-46.097,39.157-76.742,73.907-83.107,81.296
			c9.654,1.958,53.802,13.043,88.586,57.105c46.85,59.346,89.194,212.124,100.371,254.714
			c12.756-16.801,44.886-54.612,100.181-92.021c43.301-29.294,92.142-52.634,145.167-69.37
			c66.263-20.916,139.281-31.521,217.029-31.521c81.565,0,166.166,16.77,251.45,49.842c68.206,26.449,137,63.327,204.472,109.607
			c114.869,78.792,187.035,158.632,187.75,159.43l-1.637,1.47c-0.715-0.796-72.738-80.473-187.404-159.117
			c-67.327-46.177-135.965-82.968-204.007-109.351c-85.02-32.966-169.342-49.682-250.624-49.682
			c-77.522,0-150.319,10.571-216.367,31.419c-52.822,16.673-101.472,39.92-144.596,69.095
			c-56.693,38.354-88.859,77.055-100.706,92.908c0.369,1.421,0.693,2.677,0.971,3.757c17.166-11.141,70.692-42.989,156.639-68.228
			c61.909-18.18,128.301-29.437,197.332-33.456c86.271-5.021,176.936,1.306,269.467,18.811
			c50.958,9.642,146.674,38.531,313.282,121.406c99.604,49.544,178.416,95.558,179.2,96.017l0.95,0.556l-4.262,7.269l-1.898-1.113
			l3.147-5.366c-9.251-5.373-84.496-48.823-178.13-95.398c-91.833-45.678-220.627-103.786-312.698-121.207
			c-92.327-17.468-182.783-23.788-268.847-18.781c-68.851,4.003-135.066,15.221-196.809,33.342
			c-86.892,25.501-140.501,57.75-156.801,68.401c0.376,1.482,0.584,2.321,0.613,2.44l0.194,0.792l-2.37,1.408
			c1.152,0.57,1.769,0.884,1.818,0.908l-0.827,1.622c10.091,0.319,40.642,1.989,77.91,10.704
			c42.089,9.842,101.625,30.938,146.233,75.55c79.318,79.32,126.55,181.629,133.052,196.221
			c4.822-6.363,25.113-31.364,66.375-60.249c43.913-30.739,121.298-72.351,240.588-96.02
			c65.807-13.057,172.371-26.479,306.35-16.259c80.128,6.111,132.765,17.976,133.286,18.095l-0.488,2.145
			c-0.521-0.118-53.034-11.953-133.012-18.05c-73.799-5.626-186.744-7.376-305.708,16.228
			c-118.837,23.579-195.907,64.992-239.636,95.581c-47.371,33.137-66.898,61.059-67.091,61.337l-1.133,1.646l-0.303-0.71
			c-14.814,8.365-181.073,103.618-407.207,288.142l-0.06,1.97l-2.199-0.066l0.001-0.049
			c-88.343,73.121-190.564,223.004-228.965,281.71c10.344-12.506,26.493-30.214,48.836-49.647
			c39.349-34.224,106.533-80.984,203.142-109.398c62.546-18.396,143.82-33.117,241.564-43.751
			c78.171-8.506,166.998-14.433,264.014-17.616c165.172-5.419,298.596-0.938,299.925-0.893l-0.076,2.199
			c-1.328-0.048-134.691-4.525-299.791,0.893c-152.343,5-363.622,19.69-505.015,61.279
			c-96.187,28.288-163.073,74.826-202.247,108.886c-38.422,33.403-58.419,61.651-62.017,66.941c0.574,0.397,1.412,0.979,2.486,1.733
			l1.651,0.516l-1.055-0.097c18.167,12.78,93.521,67.283,124.541,113.133c33.316,49.254,54.573,151.064,61.909,190.881
			c9.092-17.753,28.516-49.473,63.708-81.375c30.997-28.098,67.993-50.861,109.962-67.659
			c52.429-20.984,112.808-32.664,179.46-34.715c81.522-2.508,171.833,12.489,268.427,44.575
			c77.242,25.657,158.655,62.239,241.979,108.729c141.855,79.146,241.389,160.696,242.378,161.512l-1.398,1.697
			c-0.987-0.813-100.396-82.257-242.086-161.307c-83.2-46.418-164.481-82.939-241.588-108.551
			c-96.34-31.999-186.39-46.964-267.644-44.456c-66.357,2.041-126.455,13.656-178.623,34.523
			c-41.716,16.686-78.486,39.292-109.29,67.191c-36.835,33.363-56.268,66.491-64.631,83.422c0.567,3.149,1.027,5.793,1.378,7.847
			c17.553-11.351,70.927-42.926,156.268-67.985c61.909-18.179,128.301-29.435,197.33-33.454
			c86.271-5.023,176.934,1.307,269.463,18.812c50.96,9.641,146.679,38.529,313.287,121.405
			c99.604,49.545,178.415,95.56,179.199,96.019l0.95,0.556l-4.258,7.26l-1.898-1.113l3.144-5.357
			c-9.251-5.373-84.495-48.825-178.13-95.4c-91.831-45.68-220.627-103.787-312.702-121.206
			c-92.354-17.473-182.838-23.793-268.927-18.777c-68.863,4.01-135.089,15.236-196.838,33.369
			c-86.502,25.4-139.971,57.462-156.489,68.236c0.271,1.635,0.417,2.554,0.434,2.663l0.114,0.734l-3.785,2.252l-1.125-1.891
			l2.505-1.49c-0.041-0.252-0.092-0.567-0.153-0.942c-2.236,1.493-3.403,2.337-3.481,2.394l-1.299-1.775
			c0.088-0.064,1.558-1.127,4.384-2.994c-0.259-1.532-0.592-3.469-0.999-5.774c-2.398,5.117-3.48,8.082-3.521,8.198l-2.072-0.738
			c0.049-0.138,1.543-4.238,4.931-11.161c-6.774-37.416-28.163-142.759-62.093-192.919
			c-33.247-49.142-117.999-108.45-127.143-114.77l-0.286-0.026c-1.443,2.279-2.243,3.561-2.341,3.718l-0.66,1.062l-3.808-3.103
			l1.391-1.705l1.872,1.525c0.277-0.442,0.641-1.02,1.085-1.723l-2.097-0.191c-1.32-0.122-134.005-11.807-305.023,11.965
			c-28.753,3.997-56.955,8.756-84.561,14.265c18.016,19.436,35.617,41.385,52.717,65.757c32.303,46.039,62.896,100.78,90.93,162.702
			c40.503,89.46,63.968,168.481,70.287,190.901c18.124-14.434,73.733-55.796,145.026-81.03
			c89.952-31.84,215.806-40.418,217.066-40.501l0.145,2.195c-1.258,0.083-126.814,8.643-216.477,40.38
			c-72.016,25.49-127.933,67.49-145.116,81.256c0.705,2.538,1.072,3.925,1.101,4.032l-2.129,0.559
			c-0.024-0.094-0.304-1.149-0.838-3.085c-2.296,1.868-3.536,2.938-3.622,3.012l-1.443-1.66c0.095-0.082,1.614-1.392,4.423-3.662
			c-5.902-21.052-29.421-100.924-70.441-191.521c-27.978-61.792-58.501-116.407-90.723-162.33
			c-17.33-24.697-35.174-46.896-53.436-66.496c-67.877,13.676-132.078,31.886-191.692,54.403
			c-105.672,39.915-197.143,93.556-271.87,159.432c-148.668,131.062-275.809,321.837-284.896,335.604l1.637,1.52l2.083-0.442
			l0.266,1.253l0.716-0.005l0,0.129c7.062-10.683,33.4-47.829,84.87-91.849c35.73-30.559,76.416-58.421,120.929-82.813
			c55.63-30.483,117.428-55.604,183.678-74.662c122.528-35.246,228.275-50.726,314.291-45.999
			c68.823,3.779,125.252,20.424,167.717,49.469c37.433,25.603,56.838,56.291,66.526,77.527
			c10.511,23.04,12.182,40.297,12.197,40.469l-2.191,0.2c-0.016-0.169-1.67-17.137-12.058-39.866
			c-9.582-20.964-28.771-51.263-65.774-76.554c-42.136-28.8-98.188-45.303-166.601-49.052c-85.77-4.704-191.24,10.75-313.499,45.921
			c-66.064,19.005-127.687,44.049-183.155,74.437c-44.372,24.308-84.927,52.071-120.541,82.519
			c-50.77,43.405-76.97,80.057-84.3,91.082c0.61-0.413,30.685-20.465,87.503-24.705c33.492-2.497,69.623,0.889,107.389,10.069
			c47.167,11.466,97.038,32.054,148.227,61.191c31.159,17.736,86.486,62.084,173.113,172.631
			c38.26,48.825,69.521,93.929,83.386,114.38c0.62-22.701,6.328-99.429,53.087-180.474
			c31.354-54.346,89.712-135.342,189.677-212.585c59.784-46.195,106.772-69.424,107.24-69.652l0.969,1.976
			c-0.466,0.228-47.294,23.381-106.911,69.454c-55.004,42.508-132.456,113.777-189.07,211.907
			c-49.018,84.958-52.672,165.052-52.856,182.534c0.617,0.915,1.187,1.762,1.706,2.535c0.383-2.531,7.262-44.997,43.033-97.918
			c21.539-31.865,49.192-61.26,82.192-87.366c41.228-32.614,90.964-60.16,147.828-81.872
			c46.006-17.566,116.808-30.999,210.439-39.925c74.857-7.138,164.409-11.43,266.168-12.759
			c173.24-2.261,323.832,4.958,325.333,5.032l-0.107,2.197c-1.5-0.073-152.032-7.296-325.208-5.029
			c-101.697,1.328-191.187,5.618-265.982,12.749c-93.432,8.907-164.038,22.295-209.857,39.79
			c-56.618,21.617-106.133,49.031-147.168,81.479c-32.817,25.948-60.317,55.158-81.736,86.817
			c-36.467,53.903-42.713,96.792-42.772,97.219l-2.075-0.284c0.804,1.198,1.486,2.219,2.04,3.051
			c1.185-1.927,11.685-18.568,33.982-40.631c21.762-21.531,59.567-52.823,116.094-79.623
			c48.979-23.223,120.467-35.504,212.476-36.504c73.53-0.799,160.286,5.563,257.853,18.909
			c166.088,22.718,307.842,58.302,309.254,58.658l-0.539,2.133c-1.411-0.356-143.064-35.913-309.034-58.614
			c-97.454-13.329-184.1-19.693-257.52-18.886c-91.684,0.997-162.858,13.207-211.547,36.292
			c-99.986,47.404-142.697,109.422-148.538,118.462l0.271-0.254l0.308,0.329l0.436,0.057l-0.046,0.359l0.807,0.86l-0.479,0.449
			l0.479,0.448l-1.2,1.281l-0.215,1.661l-1.333-0.562c-0.057-0.023-0.231-0.097-0.519-0.218l-0.359,0.337l-0.441-0.673
			c-20.715-8.684-275.788-115.169-372.272-135.585c-34.114-7.219-76.957-14.22-126.805-18.198c6.63,30.664,8.7,64.286,6.172,100.511
			c3.076,1.137,6.124,2.293,9.148,3.473c132.815,51.774,211.533,107.381,254.181,144.911c46.292,40.738,61.344,69.665,61.491,69.952
			l-1.959,1c-0.146-0.284-15.083-28.938-61.128-69.426c-42.509-37.379-120.976-92.771-253.383-144.389
			c-2.71-1.057-5.548-2.136-8.515-3.234c-0.345,4.602-0.763,9.249-1.255,13.932c-4.281,40.737-14.125,84.631-29.309,130.761
			c5.568-0.632,11.038-1.171,16.417-1.62c111.854-9.342,198.484,14.432,251.466,36.018c48.173,19.626,78.045,41.069,86.615,47.632
			c0.184-0.108,0.285-0.168,0.3-0.177l0.342-0.198l0.932,0.155l0.062-0.22l-0.047-0.298l-0.797-2.377l0.589-0.48
			c0.33-0.27,33.523-27.27,79.18-56.206c42.172-26.728,103.917-60.626,158.585-70.34c66.612-11.838,137.184-16.065,209.744-12.577
			c58.043,2.794,117.486,10.506,176.679,22.925c100.791,21.146,166.792,49,167.446,49.278l-0.861,2.025
			c-0.653-0.278-66.498-28.063-167.093-49.163c-59.073-12.39-118.393-20.084-176.312-22.869
			c-72.389-3.481-142.777,0.74-209.218,12.547c-94.633,16.815-211.982,106.529-233.349,123.366
			c16.209-9.887,78.795-44.105,170.894-45.93c1.993-0.04,4.011-0.06,6.017-0.06c98.495,0,211.236,46.61,212.386,47.09l-0.848,2.03
			c-1.17-0.488-118.112-48.832-217.512-46.861c-96.945,1.921-160.92,39.909-172.092,47.041l1.248,1.638l-1.596,1.216l0.768,2.29
			l-2.086,0.699l-0.455-1.357l-0.45,1.608l-0.968-0.809l-1.035,0.788l-1.294-1.698c-6.817,4.173-28.199,17.809-50.899,37.89
			c-25.235,22.324-57.311,57.409-66.817,97.782c-16.095,68.354,2.159,168.652,6.911,192.361c2.282,2.197,3.522,3.419,3.617,3.513
			l0.654,0.647l-0.507,0.737l0.021,0.004l-0.36,2.17l-1.039-0.173l-0.711,1.034l-1.812-1.248l0.127-0.184l-0.908-0.15l-0.162-0.726
			c-0.029-0.132-0.375-1.709-0.941-4.516c-17.364-16.687-87.994-83.025-174.999-143.83
			c-86.335-60.341-133.949-74.363-145.486-77.088l0.297,2.871l-0.595,0.062l0.264,0.66l-2.042,0.817l-1.114-2.784
			c-0.1-0.01-0.212-0.02-0.336-0.031l-0.254,0.37l-0.641-0.442c-1.511-0.111-3.951-0.242-7.322-0.275
			c-11.912,3.248-36.591,10.659-65.461,23.219c-37.341,16.244-89.533,44.671-126.116,87.845
			C-32.06,2127.09-46.789,2171.377-46.93,2171.815z M562.476,2159.004l0.455,0.076l0.046-0.067
			c-0.176-0.172-0.385-0.376-0.629-0.613C562.396,2158.63,562.439,2158.832,562.476,2159.004z M235.932,1931.912l0.679,0.102
			c0.478,0.072,48.941,7.974,149.194,78.043c83.733,58.519,152.326,122.157,172.995,141.875
			c-5.526-28.457-21.857-124.101-6.289-190.217c5.322-22.602,21.358-58.115,67.534-98.955c22.76-20.129,44.209-33.822,51.141-38.068
			c-9.28-7.03-38.696-27.792-85.513-46.854c-52.744-21.476-138.991-45.122-250.36-35.824c-5.681,0.474-11.468,1.051-17.361,1.729
			c-2.17,6.527-4.446,13.098-6.829,19.711c-7.027,19.505-14.487,37.985-21.887,55.011c54.668,9.273,123.126,15.828,206.942,15.4
			c95.256-0.463,166.079-9.839,166.783-9.935l0.293,2.181c-0.706,0.096-71.669,9.49-167.065,9.954
			c-57.879,0.298-132.831-2.782-207.869-15.5c-27.274,62.35-53.457,104.641-53.792,105.179l-1.867-1.164
			c0.333-0.534,26.303-42.486,53.425-104.396c-38.369-6.601-76.716-15.743-112.788-28.27c-8.677-3.014-17.128-6.25-25.344-9.705
			c-8.492,2.659-17.092,5.441-25.812,8.35c-65.302,21.78-137.03,50.538-213.191,85.475c-62.16,28.514-117.232,56.577-157.843,78.138
			c51.417-19.948,122.825-42.93,203.534-55.478c84.537-13.143,157.161-3.087,203.197,7.663c41.801,9.76,69.869,21.85,78.058,25.606
			L235.932,1931.912z M-330.954,1989.052l1.18,0.958c7.433-3.857,29.565-14.989,62.539-28.521
			c41.559-22.413,103.731-54.643,175.27-87.458c76.233-34.969,148.035-63.756,213.412-85.562c7.89-2.631,15.687-5.161,23.391-7.589
			c-37.518-16.146-70.072-36.911-97.063-61.945c-13.588-12.602-25.786-26.29-36.52-40.966
			C-97.55,1796.424-313.983,1975.09-330.954,1989.052z M151.227,1781.188c7.411,3.06,15.01,5.943,22.794,8.646
			c27.557,9.569,64.862,19.962,112.983,28.247c7.458-17.132,14.982-35.752,22.064-55.415c2.252-6.253,4.409-12.467,6.471-18.643
			C267.399,1749.763,212.319,1762.221,151.227,1781.188z M12.771,1676.315c10.728,14.715,22.938,28.436,36.551,41.056
			c27.36,25.364,60.487,46.319,98.746,62.496c62.659-19.583,119.062-32.372,168.238-38.149
			c15.319-46.343,25.238-90.418,29.532-131.291c0.511-4.866,0.942-9.692,1.293-14.469c-46.296-16.931-122.93-38.169-239.096-51.699
			c-25.77,43.286-54.766,86.349-84.713,120.313C19.937,1668.412,16.417,1672.327,12.771,1676.315z M-39.539,1533.672
			c0.62,13.157,4.274,52.52,25.575,97.599c7.177,15.188,15.671,29.625,25.418,43.225c3.53-3.865,6.934-7.654,10.218-11.378
			c29.345-33.281,57.907-75.428,83.934-119.14c-2.353-0.271-4.727-0.539-7.111-0.803c-72.606-8.041-129-9.518-137.46-9.7
			c-0.279,0.095-0.433,0.148-0.46,0.158L-39.539,1533.672z M833.307,1641.578c2.775,1.153,5.077,2.112,6.858,2.856
			c-0.581-0.872-1.289-1.932-2.121-3.171l-1.903,0.064c-0.003-0.091-0.03-1.092-0.018-2.917
			c-12.816-18.988-45.12-65.896-85.06-116.863c-47.69-60.856-116.321-140.107-172.46-172.062
			c-50.962-29.009-100.597-49.51-147.525-60.934c-37.522-9.135-73.407-12.52-106.659-10.059
			c-56.594,4.187-86.315,24.143-86.608,24.344l-1.243-1.812c-0.557,0.839-1.005,1.529-1.347,2.062
			c16.933,3.606,168.286,37.158,309.584,111.888c115.06,60.852,287.799,223.878,289.53,225.518L833.307,1641.578z M342.752,1491.595
			c43.422,3.447,86.183,9.599,127.78,18.401c87.59,18.534,305.344,107.743,360.934,130.817
			c-16.501-15.478-178.304-166.044-287.689-223.894c-148.887-78.743-308.944-111.679-310.543-112.002l-0.266-0.054l-3.199-2.573
			c11.424,11.822,73.417,78.095,101.841,152.239C336.136,1466.336,339.852,1478.702,342.752,1491.595z M109.265,1542.188
			c68.427,8.027,160.725,23.254,238.029,51.482c2.462-36.026,0.345-69.448-6.312-99.901c-59.784-4.641-129.548-4.911-206.416,3.958
			C126.583,1512.314,118.117,1527.257,109.265,1542.188z M-32.678,1531.441c18.272,0.556,68.824,2.615,131.392,9.544
			c2.664,0.295,5.377,0.603,8.124,0.92c8.624-14.544,16.968-29.256,24.962-43.855c-6.989,0.825-14.045,1.727-21.148,2.706
			C37.089,1510.899-14.874,1525.871-32.678,1531.441z M227.414,1303.023c-5.647,13.782-28.236,67.932-60.539,132.777
			c-9.138,18.344-19.573,38.565-31.02,59.564c45.526-5.188,91.462-7.522,136.909-6.969c22.688,0.281,45.277,1.29,67.691,3.019
			c-2.855-12.55-6.49-24.593-10.9-36.098C300.54,1379.628,236.291,1312.124,227.414,1303.023z M719.396,645.307
			c-8.427,0-21.968,1.521-41.153,8.093c-32.841,11.249-89.364,40.01-172.134,113.143c-35.815,31.645-72.686,79.308-109.588,141.667
			c-29.545,49.927-59.169,109.322-88.05,176.536c-41.927,97.576-70.172,183.74-77.783,207.657
			c21.155-31.562,142.265-208.265,282.534-331.921c74.934-66.059,166.642-119.84,272.577-159.851
			c59.323-22.406,123.185-40.556,190.672-54.222c-23.593-25.067-47.879-45.81-72.648-62.011
			c-68.682-44.922-154.089-37.386-154.944-37.306l-3.317,0.316l2.477-2.229c0.6-0.541,15.059-13.353,46.256-24.399
			c28.712-10.168,77.567-20.563,147.25-12.368c117.101,13.778,426.13,110.03,429.238,111.001l2.628,0.82
			c19.582-30.87,141.271-219.438,243.808-303.473c-0.212-0.094-0.471-0.208-0.774-0.342l-2.196,2.059l-1.504-1.605l1.501-1.406
			c-6.434-2.762-21.064-8.827-42.204-16.348c22.597,10.42,35.637,16.824,35.998,17.002l-0.973,1.973
			c-0.458-0.226-21.355-10.488-56.317-26.269c-53.28-17.573-133.796-39.171-225.095-46.818
			c-84.894-7.109-156.336,7.984-201.313,21.899c-37.635,11.643-63.488,24.405-73.435,29.686
			c17.226,9.008,177.682,93.923,250.01,167.971c38.548,39.465,56.48,77.84,64.735,103.083c8.962,27.403,8.781,45.755,8.778,45.938
			l-2.199-0.034c0.003-0.18,0.167-18.246-8.706-45.329c-8.188-24.994-25.971-63-64.183-102.12
			c-72.383-74.104-233.548-159.247-249.646-167.657l0.609,0.765l-1.721,1.371l-0.741-0.93l-0.541,0.609l-0.451-0.401l-0.062,1.983
			l-2.199-0.069l0.088-2.776c-17.101,5.679-109.141,38.253-195.039,107.805c-52.596,42.584-71.889,78.708-85.976,105.084
			c-5.49,10.279-10.23,19.156-15.781,25.967c-5.706,7-8.726,11.025-8.756,11.064l-1.576-1.181l-1.97,0.471l-0.511-2.141l2.956-0.705
			c2.104-6.62,20.855-69.592-1.629-141.793c-16.856-74.856-52.336-120.657-79.136-145.912
			c-24.77-23.341-46.886-33.916-53.016-36.582l0.6,0.393l-1.207,1.84l-1.092-0.717l-0.908,0.875l-0.56-1.564l-0.358,1.386
			l-1.634-0.423c-8.529,13.285-36.093,53.262-85.618,98.626c-35.53,32.546-75.256,61.472-118.074,85.976
			c-36.255,20.748-74.804,38.345-115.152,52.588c-11.173,45.432-19.998,90.969-24.467,133.537
			c-16.908,161.031-25.736,534.673-27.133,597.998c7.694-24.17,35.933-110.244,77.801-207.688
			c28.919-67.305,58.587-126.788,88.182-176.799c37.021-62.562,74.04-110.407,110.03-142.205
			c83.292-73.593,140.208-102.459,173.287-113.715c36.092-12.283,52.221-7.054,52.89-6.824l-0.711,2.082l0.356-1.041l-0.353,1.042
			C730.047,646.413,726.579,645.307,719.396,645.307z M59.539,606.65c46.351,75.833,79.935,153.338,100.022,230.945
			c26.897,103.914,60.202,393.243,66.902,452.886c1.471-66.343,10.297-436.887,27.121-597.124
			c3.347-31.876,10.301-75.547,24.198-132.444c-18.427,6.432-37.229,12.166-56.35,17.182
			C161.085,593.927,106.883,602.578,59.539,606.65z M764.208,644.374c28.071,0,89.117,4.367,140.819,38.183
			c25.241,16.511,49.975,37.698,73.98,63.341c28.087-5.633,56.799-10.491,86.073-14.56c144.837-20.128,262.23-14.856,295.81-12.681
			c-52.501-16.157-314.15-95.651-419.604-108.059c-69.176-8.142-117.641,2.144-146.115,12.205
			c-23.361,8.255-37.45,17.709-42.97,21.864C754.867,644.526,758.961,644.374,764.208,644.374z M606.007,319.446
			c7.32,3.285,28.799,14.048,52.675,36.524c27.055,25.471,62.868,71.654,79.836,147.026c20.585,66.091,6.856,124.589,2.56,139.811
			c1.347-1.706,3.05-3.837,5.098-6.349c5.415-6.645,10.109-15.435,15.545-25.612c14.175-26.543,33.589-62.894,86.532-105.757
			c95.028-76.945,197.565-108.796,198.59-109.108l0.716-0.219l0.074,0.094c7.906-4.326,35.051-18.366,76.056-31.053
			c45.164-13.972,116.901-29.129,202.147-21.989c81.384,6.817,154.221,24.694,206.916,40.96
			c-42.035-18.641-98.951-42.746-162.962-66.798c-78.434-29.47-152.01-53.091-218.684-70.206
			c-8.897-2.283-17.671-4.451-26.324-6.503c-7.954,4.027-16.153,7.852-24.599,11.471c-32.867,14.087-69.875,26.216-110.478,36.227
			c31.414,59.812,60.257,99.791,60.628,100.301l-1.78,1.293c-0.372-0.513-29.455-40.825-61.049-101.055
			c-15.683,3.825-31.901,7.337-48.616,10.523c-48.711,9.288-101.758,15.865-157.669,19.549c-95.189,6.271-166.64,1.911-167.35,1.865
			l0.139-2.195c0.71,0.044,72.043,4.397,167.099-1.867c57.523-3.791,131.698-12.091,205.314-29.947
			c-8.588-16.468-17.336-34.38-25.727-53.352c-2.844-6.429-5.579-12.824-8.204-19.183c-5.926-0.261-11.735-0.427-17.436-0.499
			c-111.737-1.386-196.109,28.265-247.207,53.41C642.756,288.998,614.938,311.649,606.007,319.446z M386.61,245.068
			c-10.92,26.453-23.161,57.197-35.643,90.615c-23.179,62.056-50.229,141.66-70.096,221.809
			c39.728-14.113,77.696-31.491,113.428-51.939c42.677-24.423,82.271-53.253,117.681-85.689
			c51.938-47.575,79.581-89.125,86.405-100.005l-0.868-0.569l1.207-1.84l0.817,0.537c0.243-0.401,0.403-0.671,0.481-0.804
			l0.147-0.567C589.564,312.832,493.027,278.534,386.61,245.068z M1551.562,389.779c33.862,11.174,56.747,20.725,64.432,24.047
			l1.105-1.036c-17.914-12.729-246.418-175.667-363.313-286.149c-9.672,15.396-20.875,29.913-33.54,43.443
			c-25.155,26.875-56.166,49.887-92.447,68.641c7.856,1.878,15.812,3.851,23.866,5.918c66.753,17.136,140.408,40.782,218.919,70.282
			C1444.243,342.603,1508.526,370.356,1551.562,389.779z M603.03,318.195l0.316,0.12c0.018,0.007,0.162,0.062,0.424,0.168
			c8.119-7.177,36.395-30.65,83.015-53.604c51.328-25.272,136.082-55.058,248.296-53.681c5.394,0.068,10.892,0.222,16.486,0.458
			c-18.401-44.943-31.317-88.028-38.463-128.361c-0.822-4.641-1.568-9.245-2.237-13.814c-2.781,1.262-5.535,2.538-8.269,3.833
			C774.063,134.2,699.678,195.044,659.911,235.364c-43.009,43.606-55.816,73.136-55.94,73.429l-2.025-0.859
			c0.126-0.297,13.099-30.212,56.399-74.114c39.892-40.446,114.487-101.47,243.314-162.494c2.818-1.335,5.776-2.705,8.885-4.108
			c-5.081-35.973-5.388-69.668-0.932-100.736c-40.096,6.051-82.168,14.807-125.212,27.146
			c-90.663,25.989-320.462,140.745-357.88,159.563c-4.785,10.349-19.807,43.282-39.065,89.838
			c108.507,34.126,206.661,69.088,213.987,71.705l1.107-1.915l-0.192,2.242l0.448,0.161l-0.691,2.67l-0.025,0.3l0.076,0.212
			L603.03,318.195z M954.917,214.009c2.498,6.028,5.096,12.09,7.789,18.182c8.453,19.112,17.269,37.146,25.916,53.704
			c37.873-9.286,75.551-21.116,110.694-36.178c7.574-3.246,14.954-6.66,22.131-10.236
			C1059.161,224.872,1003.346,216.335,954.917,214.009z M-328.194,45.346c33.491,11.338,251.741,83.941,515.978,141.947
			c56.204,12.338,128.848,33.495,197.562,55.072c17.954-43.408,32.243-75.019,38.018-87.586c-0.276,0.14-0.526,0.266-0.748,0.378
			l-0.399,0.69l-0.371-0.302c-0.276,0.14-0.442,0.224-0.497,0.251l-1.291,0.655l-0.331-1.644l-1.286-1.19l0.445-0.481l-0.512-0.417
			l0.747-0.917l-0.072-0.359l0.063-0.013c-10.354-5.92-60.211-33.369-158.771-71.833C210.087,59.985,147.643,46.01,74.743,38.06
			c-58.351-6.363-123.486-8.902-193.596-7.542C-223.194,32.54-307.875,42.723-328.194,45.346z M953.99,211.763
			c49.463,2.291,106.625,11.066,170.515,26.179c37.019-18.837,68.587-42.08,94.087-69.309c12.689-13.55,23.902-28.101,33.565-43.536
			c-3.92-3.721-7.71-7.382-11.358-10.973c-22.134-21.788-53.623-57.439-93.009-114.028
			c-67.834,12.823-159.444,34.606-234.835,68.443c0.688,4.751,1.461,9.542,2.316,14.371
			C922.44,123.371,935.442,166.626,953.99,211.763z M425.318,150.551c-0.235,0.397-0.455,0.769-0.657,1.112
			c0.062-0.031,0.121-0.061,0.184-0.093C425.02,151.192,425.178,150.853,425.318,150.551z M426.308,148.883l1.817,0.856
			c-0.01,0.021-0.048,0.102-0.112,0.239c0.981-0.492,2.046-1.026,3.2-1.604l-0.287-0.264l-0.88,0.66l-2.043-2.729
			C427.383,147.075,426.818,148.023,426.308,148.883z M1007.067-230.613l-0.784,0.733l-0.261,0.072
			c-1.573,0.437-158.916,44.598-301.862,133.644C599.153-30.749,448.425,130.817,433.009,147.474
			C486.85,120.524,697.739,16.181,783.793-8.488c40.873-11.717,83.093-20.873,126.164-27.378
			c1.983-13.065,4.817-25.663,8.498-37.759c22.73-74.681,78.353-144.066,90.261-158.361l-0.106-0.07l-0.998,0.935l-0.361,0.615
			L1007.067-230.613z M1150.21-0.359c29.047,41.765,60.514,81.79,92.132,112.915c3.538,3.483,7.205,7.026,10.999,10.633
			c8.765-14.254,16.217-29.252,22.305-44.908c18.07-46.479,18.934-86.01,18.624-99.168l-0.123-0.033
			c-0.027-0.008-0.181-0.049-0.46-0.122c-8.385,0.775-64.552,6.228-136.442,19.38C1154.932-1.239,1152.584-0.805,1150.21-0.359z
			 M911.883-33.86c-4.498,30.861-4.252,64.357,0.75,100.139c45.041-20.122,119.712-46.555,233.782-68.163
			c-9.053-13.057-18.517-27.214-28.377-42.557C1062.215-46.872,990.928-45.607,911.883-33.86z M1120.845-44.315
			c9.005,13.998,18.361,28.075,27.989,41.975c2.655-0.499,5.34-0.997,8.038-1.49c61.937-11.331,112.223-16.953,130.399-18.797
			c-18.15-4.298-71.08-15.572-145.209-20.494C1135.276-43.572,1128.199-43.976,1120.845-44.315z M1119.383-46.593
			c7.637,0.347,15.269,0.773,22.889,1.279c81.948,5.446,138.075,18.646,150.061,21.653l0.06-0.081l-0.627-0.974l0.878-0.565
			l-0.014-0.067l0.171-0.034l0.453-0.292l-278.415-205.067C1025.544-209.286,1066.163-129.623,1119.383-46.593z M1011.694-232.114
			c-8.198,9.689-67.529,81.573-91.134,159.13c-3.588,11.788-6.363,24.055-8.325,36.777c22.236-3.308,44.697-5.909,67.31-7.791
			c45.283-3.769,91.267-4.679,137.034-2.718c-11.211-17.51-22.924-36.539-35.121-57.222
			C1044.65-166.354,1018.294-218.78,1011.694-232.114z M1666.134-160.603c0.25,0.121,0.493,0.239,0.725,0.353l2.201-1.308
			c-0.062-0.243-0.136-0.54-0.225-0.89C1667.588-161.614,1666.686-160.99,1666.134-160.603z M1270.618-263.834
			c14.694,0.631,30.052,1.592,46.057,2.945c52.313,4.421,137.452,17.927,245.975,57.163c50.407,18.226,87.642,35.483,101.955,42.383
			l-0.42-0.574c0.084-0.062,1.451-1.05,4.077-2.791c-0.205-0.803-0.441-1.723-0.708-2.751c-2.364,3.255-3.547,5.096-3.606,5.19
			l-1.859-1.178c0.069-0.108,1.623-2.527,4.754-6.756c-10.43-39.967-53.176-195.763-100.412-255.599
			c-36.892-46.731-84.311-55.831-88.757-56.59c-6.332,3.209-103.791,53.056-147.457,100.569
			c-28.246,30.74-47.741,67.967-57.945,110.646C1271.69-268.747,1271.139-266.298,1270.618-263.834z M306.594-476.229
			c68.571,0,139.459,6.854,211.483,20.481c50.959,9.641,146.677,38.529,313.285,121.405
			c86.156,42.856,156.757,83.071,174.757,93.445c-2.019-2.596-4.907-6.284-8.6-10.929l-0.027,0.034
			c-0.987-0.812-100.395-82.256-242.084-161.306c-83.199-46.417-164.481-82.938-241.587-108.549
			c-96.339-31.999-186.395-46.955-267.643-44.456c-56.028,1.724-107.594,10.273-153.691,25.453
			c16.777,21.224,32.947,43.875,48.406,67.825c2.092,3.24,4.15,6.486,6.165,9.719c33.034-5.608,66.964-9.44,101.555-11.454
			C267.732-475.673,287.07-476.229,306.594-476.229z M-7.04-931.728c50.85,0,126.979,2.361,211.911,13.001
			c89.246,11.181,170.606,29.18,241.819,53.499c89.066,30.415,162.431,70.859,218.053,120.21
			c40.474,35.908,83.929,84.969,129.158,145.82c36.169,48.661,73.55,104.932,111.107,167.25
			c55.377,91.889,94.928,170.221,104.803,190.122c-5.386-58.034-40.943-435.346-69.428-596.192
			c-4.741-26.774-12.683-61.865-25.921-105.984c-39.556-16.685-80.105-31.537-121.55-44.508
			c-176.249-55.163-369.335-76.293-573.896-62.807c-48.976,3.229-125.083,17.253-209.533,65.726
			c-42.616,24.461-70.571,48.196-78.46,55.198C-61.187-930.785-39.152-931.728-7.04-931.728z M1013.993-245.449
			c-0.021,0.519-0.043,1.028-0.062,1.515c0.355-0.42,0.721-0.85,1.1-1.294L1013.993-245.449z M917.128-942.873
			c10.618,35.521,19.466,70.835,25.422,104.473c28.1,158.673,63.068,527.779,69.208,593.745
			c2.469-59.886,15.265-350.938,34.766-456.512c10.756-58.238,22.082-111.095,33.521-158.811
			C1027.938-891.256,973.549-918.931,917.128-942.873z M1082.021-858.789c-11.374,47.5-22.636,100.097-33.333,158.021
			c-19.137,103.604-31.818,386.298-34.594,452.879c5.453-24.833,53.702-238.919,122.205-363.942
			c26.807-49.864,58.225-97.585,93.952-142.772c-15.549-12.665-31.936-25.4-49.168-38.085
			C1149.092-816.235,1116.048-838.28,1082.021-858.789z M-430.438,1642.288l-1.043-1.938c0.779-0.419,78.926-42.319,165.829-73.079
			c89.959-31.84,215.808-40.423,217.068-40.506l0.145,2.195c-1.258,0.083-126.809,8.647-216.478,40.385
			C-351.656,1600.047-429.66,1641.869-430.438,1642.288z M-55.722,1520.225l-1.612-1.496l1.557-1.677
			c-8.062-4.664-57.906-32.636-159.654-72.341c-50.26-19.615-112.71-33.591-185.615-41.54
			c-58.355-6.364-123.495-8.898-193.608-7.542c-119.394,2.314-213.026,15.312-213.958,15.443l-0.306-2.179
			c0.933-0.132,94.696-13.147,214.221-15.464c70.207-1.355,135.442,1.181,193.89,7.554c73.098,7.971,135.736,21.993,186.176,41.678
			c111.333,43.446,160.675,72.898,161.161,73.191l1.159,0.699L-55.722,1520.225z M1924.454,1334.447l-0.784-1.838
			c-0.476-1.115-48.486-112.418-133.348-197.279c-24.422-24.423-69.434-57.254-145.183-74.967
			c-45.329-10.6-80.601-10.723-80.952-10.723v-2.199c0.354,0,35.88,0.123,81.453,10.78c42.089,9.842,101.624,30.938,146.236,75.553
			c79.318,79.317,126.544,181.628,133.046,196.22c4.822-6.363,25.114-31.364,66.378-60.249
			c43.913-30.74,121.301-72.352,240.593-96.021c65.809-13.056,172.372-26.479,306.351-16.258
			c80.127,6.11,132.764,17.974,133.285,18.093l-0.489,2.145c-0.521-0.118-53.032-11.951-133.01-18.048
			c-73.798-5.624-186.742-7.375-305.709,16.227c-118.839,23.579-195.912,64.993-239.642,95.583
			c-47.372,33.138-66.9,61.059-67.093,61.337L1924.454,1334.447z M-337.44,47.173l0.055-6.056l2.199,0.02l-0.012,1.307
			c7.921-6.404,41.112-32.357,92.049-60.301c53.941-29.591,139.409-67.549,240.247-80.332
			c88.529-11.215,243.952,12.572,245.511,12.813l-0.336,2.174c-1.557-0.241-156.682-23.987-244.898-12.804
			c-55.469,7.031-142.04,26.632-239.465,80.078c-58.259,31.96-93.173,61.261-93.519,61.554L-337.44,47.173z M1292.333-30.108
			l-1.443-1.66c0.633-0.551,64.291-55.389,151.315-86.192c89.95-31.841,215.808-40.417,217.068-40.5l0.145,2.195
			c-1.258,0.082-126.818,8.641-216.479,40.379C1356.305-85.221,1292.963-30.656,1292.333-30.108z M-492.654-249.842l-1.043-1.938
			c0.779-0.419,78.922-42.313,165.829-73.074c89.956-31.844,215.807-40.421,217.068-40.504l0.145,2.195
			c-1.258,0.083-126.812,8.641-216.479,40.383C-413.883-292.075-491.876-250.261-492.654-249.842z"/>
		<path clip-path="url(#SVGID_6_)" fill="#E2E3E4" d="M1020.852-235.764c0,6.055-4.902,10.957-10.959,10.957
			c-6.053,0-10.959-4.902-10.959-10.957c0-6.054,4.906-10.959,10.959-10.959C1015.949-246.723,1020.852-241.817,1020.852-235.764"/>
		<path clip-path="url(#SVGID_6_)" fill="none" stroke="#00A2DD" stroke-width="2.2" d="M1020.852-235.764
			c0,6.055-4.902,10.957-10.959,10.957c-6.053,0-10.959-4.902-10.959-10.957c0-6.054,4.906-10.959,10.959-10.959
			C1015.949-246.723,1020.852-241.817,1020.852-235.764z"/>
		<path clip-path="url(#SVGID_6_)" fill="#707070" d="M613.928,319.344c0,6.053-4.908,10.956-10.963,10.956
			c-6.051,0-10.958-4.903-10.958-10.956s4.907-10.959,10.958-10.959C609.02,308.385,613.928,313.291,613.928,319.344"/>
		<path clip-path="url(#SVGID_6_)" fill="#E2E3E4" d="M1488.473-483.538c0,6.053-4.906,10.957-10.955,10.957
			c-6.059,0-10.965-4.904-10.965-10.957c0-6.057,4.906-10.961,10.965-10.961C1483.566-494.499,1488.473-489.595,1488.473-483.538"/>
		<path clip-path="url(#SVGID_6_)" fill="none" stroke="#00A2DD" stroke-width="2.2" d="M1488.473-483.538
			c0,6.053-4.906,10.957-10.955,10.957c-6.059,0-10.965-4.904-10.965-10.957c0-6.057,4.906-10.961,10.965-10.961
			C1483.566-494.499,1488.473-489.595,1488.473-483.538z"/>
		<path clip-path="url(#SVGID_6_)" fill="#E2E3E4" d="M264.388-84.291c0,6.05-4.902,10.959-10.958,10.959
			s-10.963-4.909-10.963-10.959c0-6.057,4.907-10.961,10.963-10.961S264.388-90.348,264.388-84.291"/>
		<path clip-path="url(#SVGID_6_)" fill="none" stroke="#00A2DD" stroke-width="2.2" d="M264.388-84.291
			c0,6.05-4.902,10.959-10.958,10.959s-10.963-4.909-10.963-10.959c0-6.057,4.907-10.961,10.963-10.961
			S264.388-90.348,264.388-84.291z"/>
		<path clip-path="url(#SVGID_6_)" fill="#E2E3E4" d="M752.028,644.876c0,6.056-4.907,10.956-10.958,10.956
			c-6.055,0-10.963-4.9-10.963-10.956s4.908-10.959,10.963-10.959C747.121,633.917,752.028,638.82,752.028,644.876"/>
		<path clip-path="url(#SVGID_6_)" fill="none" stroke="#00A2DD" stroke-width="2.2" d="M752.028,644.876
			c0,6.056-4.907,10.956-10.958,10.956c-6.055,0-10.963-4.9-10.963-10.956s4.908-10.959,10.963-10.959
			C747.121,633.917,752.028,638.82,752.028,644.876z"/>
		<path clip-path="url(#SVGID_6_)" fill="#E2E3E4" d="M1575.678,1044.921c0,6.053-4.904,10.959-10.959,10.959
			c-6.053,0-10.963-4.906-10.963-10.959c0-6.056,4.91-10.956,10.963-10.956C1570.773,1033.965,1575.678,1038.865,1575.678,1044.921"
			/>
		<path clip-path="url(#SVGID_6_)" fill="none" stroke="#00A2DD" stroke-width="2.2" d="M1575.678,1044.921
			c0,6.053-4.904,10.959-10.959,10.959c-6.053,0-10.963-4.906-10.963-10.959c0-6.056,4.91-10.956,10.963-10.956
			C1570.773,1033.965,1575.678,1038.865,1575.678,1044.921z"/>
		<path clip-path="url(#SVGID_6_)" fill="#66A4CD" d="M238.139,1301.208c0,6.053-4.907,10.959-10.958,10.959
			c-6.053,0-10.963-4.906-10.963-10.959c0-6.05,4.911-10.956,10.963-10.956C233.231,1290.252,238.139,1295.158,238.139,1301.208"/>
		<path clip-path="url(#SVGID_6_)" fill="none" stroke="#66A4CD" stroke-width="2.2" d="M238.139,1301.208
			c0,6.053-4.907,10.959-10.958,10.959c-6.053,0-10.963-4.906-10.963-10.959c0-6.05,4.911-10.956,10.963-10.956
			C233.231,1290.252,238.139,1295.158,238.139,1301.208z"/>
		<path clip-path="url(#SVGID_6_)" fill="#E2E3E4" d="M1385.998,720.546c0,6.05-4.906,10.956-10.957,10.956
			c-6.055,0-10.963-4.906-10.963-10.956c0-6.056,4.908-10.959,10.963-10.959C1381.092,709.587,1385.998,714.49,1385.998,720.546"/>
		<path clip-path="url(#SVGID_6_)" fill="none" stroke="#00A2DD" stroke-width="2.2" d="M1385.998,720.546
			c0,6.05-4.906,10.956-10.957,10.956c-6.055,0-10.963-4.906-10.963-10.956c0-6.056,4.908-10.959,10.963-10.959
			C1381.092,709.587,1385.998,714.49,1385.998,720.546z"/>
		<path clip-path="url(#SVGID_6_)" fill="#E2E3E4" d="M1673.982-161.035c0,6.054-4.906,10.963-10.961,10.963
			c-6.051,0-10.957-4.909-10.957-10.963c0-6.053,4.906-10.957,10.957-10.957C1669.076-171.992,1673.982-167.088,1673.982-161.035"/>
		<path clip-path="url(#SVGID_6_)" fill="none" stroke="#00A2DD" stroke-width="2.2" d="M1673.982-161.035
			c0,6.054-4.906,10.963-10.961,10.963c-6.051,0-10.957-4.909-10.957-10.963c0-6.053,4.906-10.957,10.957-10.957
			C1669.076-171.992,1673.982-167.088,1673.982-161.035z"/>
		<path clip-path="url(#SVGID_6_)" fill="#E2E3E4" d="M1629.51,417.107c0,6.053-4.91,10.956-10.963,10.956
			c-6.055,0-10.961-4.903-10.961-10.956c0-6.059,4.906-10.959,10.961-10.959C1624.6,406.148,1629.51,411.049,1629.51,417.107"/>
		<path clip-path="url(#SVGID_6_)" fill="none" stroke="#00A2DD" stroke-width="2.2" d="M1629.51,417.107
			c0,6.053-4.91,10.956-10.963,10.956c-6.055,0-10.961-4.903-10.961-10.956c0-6.059,4.906-10.959,10.961-10.959
			C1624.6,406.148,1629.51,411.049,1629.51,417.107z"/>
		<path clip-path="url(#SVGID_6_)" fill="#E2E3E4" d="M1193.988,1172.86c0,6.056-4.906,10.959-10.963,10.959
			c-6.049,0-10.955-4.903-10.955-10.959c0-6.05,4.906-10.959,10.955-10.959C1189.082,1161.901,1193.988,1166.811,1193.988,1172.86"
			/>
		<path clip-path="url(#SVGID_6_)" fill="none" stroke="#00A2DD" stroke-width="2.2" d="M1193.988,1172.86
			c0,6.056-4.906,10.959-10.963,10.959c-6.049,0-10.955-4.903-10.955-10.959c0-6.05,4.906-10.959,10.955-10.959
			C1189.082,1161.901,1193.988,1166.811,1193.988,1172.86z"/>
		<path clip-path="url(#SVGID_6_)" fill="#707070" d="M436.4,148.107c0,6.053-4.902,10.959-10.958,10.959
			c-6.056,0-10.963-4.906-10.963-10.959s4.908-10.959,10.963-10.959C431.498,137.148,436.4,142.055,436.4,148.107"/>
		<path clip-path="url(#SVGID_6_)" fill="#E2E3E4" d="M1306.133-25.641c0,6.057-4.908,10.959-10.959,10.959
			c-6.053,0-10.965-4.902-10.965-10.959c0-6.053,4.912-10.957,10.965-10.957C1301.225-36.598,1306.133-31.693,1306.133-25.641"/>
		<path clip-path="url(#SVGID_6_)" fill="none" stroke="#00A2DD" stroke-width="2.2" d="M1306.133-25.641
			c0,6.057-4.908,10.959-10.959,10.959c-6.053,0-10.965-4.902-10.965-10.959c0-6.053,4.912-10.957,10.965-10.957
			C1301.225-36.598,1306.133-31.693,1306.133-25.641z"/>
		<path clip-path="url(#SVGID_6_)" fill="#707070" d="M1060.416,399.893c0,6.051-4.906,10.957-10.963,10.957
			c-6.049,0-10.955-4.906-10.955-10.957c0-6.055,4.906-10.959,10.955-10.959C1055.51,388.934,1060.416,393.838,1060.416,399.893"/>
		<path clip-path="url(#SVGID_6_)" fill="none" stroke="#00A2DD" stroke-width="2.2" stroke-miterlimit="10" d="M240.616,1294.484
			l0.888,4.392c0,0-288.589-78.48-624.451,17.803c-121.852,34.933-444.461,198.526-444.461,198.526l-0.888-4.395"/>
		<path clip-path="url(#SVGID_6_)" fill="none" stroke="#00A2DD" stroke-width="2.2" stroke-miterlimit="10" d="M1182.398,1165.681
			l0.887,4.389c0,0-223.16-86.005-559.021,10.274c-121.851,34.933-376.936,113.582-376.936,113.582l-23.75,19.981"/>
	</g>
</g>
</svg>
