<?xml version="1.0" encoding="utf-8"?>
<!-- Generator: Adobe Illustrator 16.0.4, SVG Export Plug-In . SVG Version: 6.00 Build 0)  -->
<!DOCTYPE svg PUBLIC "-//W3C//DTD SVG 1.1//EN" "http://www.w3.org/Graphics/SVG/1.1/DTD/svg11.dtd">
<svg version="1.1" id="Layer_1" xmlns="http://www.w3.org/2000/svg" xmlns:xlink="http://www.w3.org/1999/xlink" x="0px" y="0px"
	 width="260px" height="40px" viewBox="0 0 260 40" enable-background="new 0 0 260 40" xml:space="preserve">
<g>
	<path fill="#FFFFFF" d="M19.001,31.955l3.61-7.42l3.604,7.42l10.523-21.826h-3.883c-0.394,0.195-0.686,0.488-1.137,1.525
		l-6.115,14.119v0.023l-0.007-0.012l-0.005,0.012v-0.023l-3.002-6.932l-3.002,6.932v0.023l-0.005-0.012l-0.004,0.012v-0.023
		l-6.113-14.119c-0.455-1.037-0.746-1.33-1.139-1.525H8.48L19.001,31.955z"/>
	<path fill="#FFFFFF" d="M21.307,10.553c0,0.151,0.021,0.345,0.286,0.972l0.998,2.393l0.997-2.393
		c0.265-0.627,0.288-0.82,0.288-0.972c0-0.206-0.151-0.34-0.378-0.424h-1.812C21.459,10.213,21.307,10.347,21.307,10.553"/>
	<path fill="#FFFFFF" d="M15.294,10.553c0,0.151,0.021,0.345,0.286,0.972l4.002,9.612l1.962-4.709l-2.066-4.773
		c-0.455-1.037-0.745-1.327-1.139-1.525h-2.668C15.446,10.213,15.294,10.347,15.294,10.553"/>
	<path fill="#FFFFFF" d="M25.704,11.654l-2.067,4.773l1.961,4.709l4.004-9.612c0.265-0.627,0.285-0.823,0.285-0.972
		c0-0.206-0.151-0.34-0.377-0.426h-2.667C26.448,10.327,26.159,10.615,25.704,11.654"/>
	<polygon fill="#FFFFFF" points="70.781,9.144 76.072,9.144 79.881,25.232 79.941,25.232 83.446,9.144 87.92,9.144 82.358,30.538 
		77.16,30.538 73.229,14.24 73.169,14.24 68.938,30.538 63.618,30.538 58.297,9.144 63.135,9.144 66.488,25.232 66.551,25.232 	"/>
	<path fill="#FFFFFF" d="M94.058,30.538h-4.534V15.664h4.534V30.538z M94.209,12.967h-4.837V9.146h4.837V12.967z"/>
	<rect x="97.292" y="9.146" fill="#FFFFFF" width="4.534" height="21.393"/>
	<path fill="#FFFFFF" d="M112.738,19.635c-0.06-1.008-1.029-1.453-2.055-1.453c-1.241,0-1.814,0.355-1.814,1.332
		c0,2.342,8.675,1.009,8.675,6.58c0,3.26-4.05,4.889-6.861,4.889c-3.537,0-6.621-1.363-6.68-4.77h4.201
		c0.092,1.154,1.149,1.805,2.479,1.805c1.238,0,2.175-0.502,2.175-1.658c0-1.186-2.175-1.688-3.083-1.895
		c-2.9-0.682-5.592-1.307-5.592-4.771c0-3.112,3.84-4.475,6.5-4.475c3.204,0,5.924,1.125,6.136,4.416H112.738z"/>
	<path fill="#FFFFFF" d="M126.855,28.018c2.781,0,3.234-2.547,3.234-4.916c0-2.372-0.453-4.92-3.234-4.92s-3.235,2.548-3.235,4.92
		C123.62,25.471,124.074,28.018,126.855,28.018 M126.855,30.982c-4.958,0-7.919-3.199-7.919-7.881c0-4.683,2.961-7.883,7.919-7.883
		c4.958,0,7.918,3.2,7.918,7.883C134.773,27.783,131.812,30.982,126.855,30.982"/>
	<path fill="#FFFFFF" d="M140.729,17.381l0.062,0.09c0.937-1.362,2.358-2.25,4.655-2.25c1.512,0,4.444,1.095,4.988,3.258
		c0.24,0.918,0.301,1.865,0.301,2.371v9.688H146.2V21.59c-0.028-1.602-0.481-3.406-2.72-3.406c-1.422,0-2.658,1.243-2.721,3.406
		v8.948h-4.533V15.664h4.502V17.381z"/>
	<path fill="#FFFFFF" d="M174.191,16.078c0.031-2.251-1.359-4.061-4.17-4.061c-3.326,0-4.172,4.832-4.172,7.824
		c0,2.994,0.846,7.821,4.172,7.821c2.811,0,4.201-1.808,4.17-4.059h4.99c-0.215,5.36-4.145,7.378-9.16,7.378
		c-6.318,0-9.16-4.889-9.16-11.141s2.842-11.143,9.16-11.143c5.016,0,8.945,2.014,9.16,7.379H174.191z"/>
	<path fill="#FFFFFF" d="M190.575,21.324c0-1.631-0.453-3.141-2.659-3.141c-2.087,0-2.54,1.51-2.601,3.141H190.575z M185.315,24.286
		c0,1.927,0.272,3.731,2.601,3.731c1.57,0,2.357-0.562,2.781-1.924h4.08c-0.394,3.673-3.324,4.889-6.861,4.889
		c-5.2,0-7.285-2.875-7.285-7.851c0-4.476,2.659-7.911,7.285-7.911c2.842,0,5.199,0.947,6.468,3.552
		c0.425,0.831,0.636,1.72,0.757,2.669c0.121,0.917,0.121,1.867,0.121,2.845H185.315z"/>
	<path fill="#FFFFFF" d="M202.033,17.381l0.061,0.09c0.936-1.362,2.357-2.25,4.654-2.25c1.512,0,4.444,1.095,4.988,3.258
		c0.24,0.918,0.302,1.865,0.302,2.371v9.688h-4.534V21.59c-0.031-1.602-0.484-3.406-2.721-3.406c-1.421,0-2.659,1.243-2.72,3.406
		v8.948h-4.536V15.664h4.506V17.381z"/>
	<path fill="#FFFFFF" d="M215.847,15.664v-2.935l4.534-1.601v4.535h3.416v2.961h-3.416v6.906c0,1.955,0.303,2.486,1.875,2.486
		c0.483,0,0.968-0.056,1.449-0.089v2.608c-0.514,0.236-2.932,0.445-3.566,0.445c-3.536,0-4.292-1.808-4.292-5.037v-7.32h-3.053
		v-2.961H215.847z"/>
	<path fill="#FFFFFF" d="M234.496,21.324c0-1.631-0.453-3.141-2.659-3.141c-2.087,0-2.539,1.51-2.599,3.141H234.496z
		 M229.238,24.286c0,1.927,0.271,3.731,2.599,3.731c1.571,0,2.358-0.562,2.782-1.924h4.079c-0.392,3.673-3.325,4.889-6.861,4.889
		c-5.199,0-7.285-2.875-7.285-7.851c0-4.476,2.66-7.911,7.285-7.911c2.843,0,5.198,0.947,6.47,3.552
		c0.423,0.831,0.635,1.72,0.756,2.669c0.119,0.917,0.119,1.867,0.119,2.845H229.238z"/>
	<path fill="#FFFFFF" d="M245.198,15.664l0.091,2.695h0.061c0.966-2.34,2.9-2.933,5.168-2.875v3.94h-1.963
		c-0.758,0.06-1.755,0.476-2.207,1.098c-0.484,0.829-0.574,1.659-0.605,2.638v7.377h-4.504l-0.03-11.912
		c0-0.619-0.091-1.865-0.151-2.961H245.198z"/>
	
		<rect x="36.117" y="19.993" transform="matrix(-0.0025 -1 1 -0.0025 26.4141 68.4128)" fill="#FFFFFF" width="22.421" height="2.08"/>
</g>
</svg>
